<?xml version="1.0" encoding="UTF-8"?><svg xmlns="http://www.w3.org/2000/svg" xmlns:xlink="http://www.w3.org/1999/xlink" viewBox="0 0 1890 290"><defs><style>.cls-1{fill:url(#linear-gradient-12);}.cls-1,.cls-2,.cls-3,.cls-4,.cls-5,.cls-6,.cls-7,.cls-8,.cls-9,.cls-10,.cls-11,.cls-12,.cls-13,.cls-14,.cls-15,.cls-16,.cls-17,.cls-18,.cls-19,.cls-20,.cls-21,.cls-22,.cls-23,.cls-24,.cls-25,.cls-26,.cls-27,.cls-28,.cls-29{stroke-width:0px;}.cls-30{stroke-width:.59px;}.cls-30,.cls-31,.cls-3,.cls-32{fill:#223654;}.cls-30,.cls-31,.cls-33,.cls-34,.cls-35,.cls-36,.cls-37,.cls-38,.cls-39,.cls-40,.cls-41,.cls-32,.cls-42,.cls-43{stroke-miterlimit:10;}.cls-30,.cls-31,.cls-33,.cls-34,.cls-38,.cls-39,.cls-40,.cls-41,.cls-32,.cls-42,.cls-43{stroke:#212c42;}.cls-2{fill:#f3ffff;}.cls-31,.cls-33,.cls-34,.cls-36,.cls-38,.cls-39,.cls-40,.cls-41,.cls-42,.cls-43{stroke-width:.09px;}.cls-4{fill:url(#linear-gradient-6);}.cls-5,.cls-40{fill:#02adef;}.cls-33,.cls-8,.cls-35,.cls-37{fill:#1c2538;}.cls-44,.cls-16{opacity:.52;}.cls-7{fill:#151c2b;}.cls-9{fill:url(#linear-gradient-11);}.cls-34{fill:url(#New_Gradient_Swatch-3);}.cls-10{fill:url(#linear-gradient-5);}.cls-45{filter:url(#AI_GaussianBlur_4);}.cls-11{fill:none;}.cls-35{stroke:#000;stroke-width:3.33px;}.cls-12{fill:#f42f63;}.cls-46{opacity:.23;}.cls-13{fill:#fff;}.cls-14{fill:url(#linear-gradient-2);}.cls-36{fill:#293447;}.cls-36,.cls-37{stroke:aqua;}.cls-37{stroke-width:.08px;}.cls-15{fill:url(#linear-gradient-7);}.cls-17{fill:url(#linear-gradient-3);}.cls-18{fill:#9ae1f7;}.cls-38{fill:#525a6a;}.cls-47{filter:url(#AI_GaussianBlur_4-3);}.cls-48{clip-path:url(#clippath);}.cls-39{fill:url(#New_Gradient_Swatch-2);}.cls-19{fill:url(#linear-gradient-9);}.cls-20{fill:#98dff5;}.cls-41{fill:#212c42;}.cls-32{stroke-width:.08px;}.cls-21{fill:url(#New_Gradient_Swatch);}.cls-22{fill:#eb0037;}.cls-23{fill:#81005c;}.cls-24{fill:url(#linear-gradient-8);}.cls-43{fill:url(#linear-gradient);}.cls-25{fill:#fffce5;}.cls-26{fill:#a3ea2a;}.cls-49{filter:url(#AI_GaussianBlur_4-2);}.cls-27{fill:url(#linear-gradient-10);}.cls-28{fill:url(#linear-gradient-4);}.cls-29{fill:#f1ffff;}</style><linearGradient id="linear-gradient" x1="-544.44" y1="145" x2="2466.46" y2="145" gradientUnits="userSpaceOnUse"><stop offset="0" stop-color="#000"/><stop offset=".13" stop-color="#0a111a"/><stop offset=".37" stop-color="#1b2b44"/><stop offset=".49" stop-color="#223654"/><stop offset=".61" stop-color="#18273d"/><stop offset=".87" stop-color="#060a11"/><stop offset="1" stop-color="#000"/></linearGradient><clipPath id="clippath"><polygon class="cls-11" points="909.8 92.1 853.56 92.1 853.56 114.9 825.48 114.9 825.48 143.32 814.75 143.32 814.75 214.33 832.09 225.89 854.38 225.89 833.33 235.8 833.33 249.84 898.91 280.39 940.63 280.39 940.63 269.24 992.73 269.24 1044.7 177.91 1062.04 177.91 1062.04 154.1 1043.05 154.1 1032.73 118.64 1032.73 110.75 1013.42 110.75 1013.42 95.76 909.8 92.1"/></clipPath><linearGradient id="New_Gradient_Swatch" x1="854.92" y1="184.29" x2="860.21" y2="10.81" gradientUnits="userSpaceOnUse"><stop offset=".2" stop-color="#f0f0f0"/><stop offset=".72" stop-color="#cfcdcd"/></linearGradient><linearGradient id="New_Gradient_Swatch-2" x1="807.8" y1="280.2" x2="992.73" y2="280.2" xlink:href="#New_Gradient_Swatch"/><linearGradient id="New_Gradient_Swatch-3" x1="807.8" y1="258.98" x2="992.73" y2="258.98" xlink:href="#New_Gradient_Swatch"/><linearGradient id="linear-gradient-2" x1="1015.69" y1="299.37" x2="1024.26" y2="18.29" gradientUnits="userSpaceOnUse"><stop offset=".2" stop-color="#f0f0f0"/><stop offset=".72" stop-color="#cfcdcd"/></linearGradient><filter id="AI_GaussianBlur_4"><feGaussianBlur stdDeviation="4"/></filter><linearGradient id="linear-gradient-3" x1="-276.41" y1="75.96" x2="-260.77" y2="110.01" gradientTransform="translate(705.78 72.46) rotate(-168.18) scale(1 -1)" gradientUnits="userSpaceOnUse"><stop offset=".41" stop-color="#223654" stop-opacity="0"/><stop offset=".88" stop-color="aqua"/></linearGradient><linearGradient id="linear-gradient-4" x1="895.58" y1="234.87" x2="895.58" y2="57.82" gradientTransform="translate(49.7 39.17) rotate(-6.69)" gradientUnits="userSpaceOnUse"><stop offset=".56" stop-color="#f2f2f2"/><stop offset=".72" stop-color="#d1cfcf"/></linearGradient><filter id="AI_GaussianBlur_4-2"><feGaussianBlur stdDeviation="4"/></filter><filter id="AI_GaussianBlur_4-3"><feGaussianBlur stdDeviation="4"/></filter><linearGradient id="linear-gradient-5" x1="872.3" y1="178.89" x2="884.88" y2="178.89" gradientTransform="translate(49.7 39.17) rotate(-6.69)" gradientUnits="userSpaceOnUse"><stop offset="0" stop-color="#fffce5"/><stop offset="1" stop-color="#eb0037"/></linearGradient><linearGradient id="linear-gradient-6" x1="914.5" y1="189.38" x2="890.64" y2="177.85" gradientTransform="translate(49.7 39.17) rotate(-6.69)" gradientUnits="userSpaceOnUse"><stop offset=".26" stop-color="#fffce5"/><stop offset="1" stop-color="#eb0037"/></linearGradient><linearGradient id="linear-gradient-7" x1="881.75" y1="164.69" x2="883.08" y2="181.28" gradientTransform="translate(49.7 39.17) rotate(-6.69)" gradientUnits="userSpaceOnUse"><stop offset=".31" stop-color="#fffce5"/><stop offset="1" stop-color="#eb0037"/></linearGradient><linearGradient id="linear-gradient-8" x1="903.17" y1="169.65" x2="893.95" y2="188.19" gradientTransform="translate(49.7 39.17) rotate(-6.69)" gradientUnits="userSpaceOnUse"><stop offset=".23" stop-color="#fffce5"/><stop offset="1" stop-color="#eb0037"/></linearGradient><linearGradient id="linear-gradient-9" x1="1086.06" y1="77.37" x2="1177.74" y2="77.37" gradientUnits="userSpaceOnUse"><stop offset="0" stop-color="#719cf9"/><stop offset=".09" stop-color="#6084d2"/><stop offset=".21" stop-color="#4d69a6"/><stop offset=".32" stop-color="#3d5382"/><stop offset=".44" stop-color="#304266"/><stop offset=".56" stop-color="#283552"/><stop offset=".68" stop-color="#222e46"/><stop offset=".79" stop-color="#212c42"/></linearGradient><linearGradient id="linear-gradient-10" x1="1311.12" y1="118.12" x2="1454.36" y2="118.12" gradientTransform="translate(-126.16 447.5) rotate(-17.51)" xlink:href="#linear-gradient-9"/><linearGradient id="linear-gradient-11" x1="1092.37" y1="278.67" x2="1131.43" y2="278.67" gradientUnits="userSpaceOnUse"><stop offset="0" stop-color="#719cf9"/><stop offset=".08" stop-color="#6084d2"/><stop offset=".19" stop-color="#4d69a6"/><stop offset=".3" stop-color="#3d5382"/><stop offset=".41" stop-color="#304266"/><stop offset=".51" stop-color="#283552"/><stop offset=".62" stop-color="#222e46"/><stop offset=".73" stop-color="#212c42"/></linearGradient><linearGradient id="linear-gradient-12" x1="698.22" y1="163.89" x2="746.64" y2="163.89" gradientUnits="userSpaceOnUse"><stop offset="0" stop-color="#223654"/><stop offset=".14" stop-color="#243858"/><stop offset=".3" stop-color="#2a4065"/><stop offset=".46" stop-color="#344e7b"/><stop offset=".63" stop-color="#436199"/><stop offset=".8" stop-color="#5679c0"/><stop offset=".97" stop-color="#6c96f0"/><stop offset="1" stop-color="#719cf9"/></linearGradient></defs><g id="Layer_4"><rect class="cls-43" x="-5" y="-5" width="1900" height="300"/></g><g id="Layer_6"><polygon class="cls-42" points="909.8 92.1 853.56 92.1 853.56 114.9 825.48 114.9 825.48 143.32 814.75 143.32 814.75 214.33 832.09 225.89 854.38 225.89 833.33 235.8 833.33 249.84 898.91 280.39 940.63 280.39 940.63 269.24 992.73 269.24 1044.7 177.91 1062.04 177.91 1062.04 154.1 1043.05 154.1 1032.73 118.64 1032.73 110.75 1013.42 110.75 1013.42 95.76 909.8 92.1"/><g class="cls-48"><path class="cls-21" d="m885.93,166.79s-4.13,9.44-14.99,6.18c0,0,10.49-1.72,6.37-12.23,0,0-7.49-3.32-7.87-4.86s-3.37-8.65-3.37-8.65l-7.49-5.25-8.99-4.58s-13.12,22.61-23.98,27.27c-10.86,4.66-20.98,8.98-20.98,8.98v-50.16l40.65-55.22,38.78,9.28s27.51,14.5,25.74,14.55-23.87,74.69-23.87,74.69Z"/></g><path class="cls-39" d="m818.41,280.39s-.73-.77-1.54-.1c.51,0,1.03.02,1.54.1Z"/><path class="cls-34" d="m959.5,229.03l-65.95-6.08-73.57,31.22s-13.63,21.6-12.06,29.58c0,0,4.26-3.42,8.94-3.47.81-.67,1.54.1,1.54.1-.52-.08-1.03-.11-1.54-.1-.87.72-1.84,3.1-2.12,9.89-.07,1.78-.04,3.38.08,4.82h54.21c-1.48-2.04-2.24-4.51-1.85-7.27,1.05-7.53,3.76-7.95,3.76-7.95l18.22.61h51.47v-11.15h52.1l-33.23-40.21Z"/><path class="cls-40" d="m793.77,202.31s-1.39,3.49-3.06,4.4,3.06-1.92,3.06-1.92v-2.48Z"/><polygon class="cls-40" points="790.36 203.66 787.14 205.38 791.43 204.52 790.36 203.66"/><polygon class="cls-40" points="798.75 202.31 793.77 204.79 794.51 206.26 798.75 202.31"/></g><g id="Layer_3"><path class="cls-29" d="m848.81,143.88c-7.61,7.12-14.78,15.49-18.01,25.57,1.04-4.77,2.08-9.53,3.13-14.3-3.9,7.99-7.45,16.16-10.64,24.46,2.16-8.45,4.32-16.9,6.48-25.35-2.51,5.29-5.42,10.39-8.68,15.23,3.48-12.09,9.04-23.67,16.29-33.96-1.54,3.56-2.23,7.47-1.97,11.21,6.37-7.78,12.75-15.56,19.12-23.35-1.48,4.56-2.95,9.12-4.43,13.68,6.81-5.83,1.77.8,5.78-7.45"/><path class="cls-32" d="m971.42,85.78s-24.13,37.42-25.63,37.37c-1.49-.04-30.23,122.32-31.96,126.47l85.42,10.54s-1.18-113.82-.43-120.51,17.22-24.31,29.3-22.66l-56.7-31.2Z"/><rect class="cls-38" x="1031.11" y="110.54" width="51.15" height="18.17"/><path class="cls-8" d="m1002.15,195.12c-1.18-2.8-3.75-5.38-7.29-7.3,4.89,3.08.05,8.08-.1,12.37-.07,1.93.89,3.81,1.61,5.69,1.98,5.17,2.15,10.59.52,15.81.72-.63,1.45-1.27,2.17-1.9-.83,5.02-2.97,9.97-6.31,14.59,1.02-.59,2.03-1.18,3.05-1.77-1.88,3.7-2.89,7.57-2.99,11.45.82-1.1,1.63-2.19,2.45-3.29,4.76,8.09,5.74,17.01,2.8,25.42,3.39-3.81,4.97-8.22,4.5-12.56,1.74,1.98,2.83,4.18,3.21,6.41,1.29-3.46.51-7.19-2.15-10.34,4.06,1.6,8.13,3.2,12.19,4.8-4.78-4.15-10.03-8.09-15.7-11.79,1.59.59,3.18,1.18,4.77,1.77-2.71-2.9-3.81-6.36-3.07-9.67.89.75,1.77,1.49,2.66,2.24,1.17-14.6-.06-29.27-3.68-43.72"/><path class="cls-8" d="m986.93,171.08s-6.59,27.48-10.34,29.87c-3.75,2.39,1.05,10.18,1.05,10.18l3.74,2.11s9.43,11.2,2.19,15c0,0-6.67,5.38-9.4,4.24,0,0,9.65,6.09,11.38,4.03s4.19,5.76,2.39,10.63c-1.79,4.86-6.06,10.88-6.06,10.88l15.47,3.11,19.61-13.99-5.06-56.26s-1.49-32.07-2.73-34.99c-1.24-2.92,6.64-38.14,6.64-38.14l1.15-5.85-21.4,21.26-8.63,37.92Z"/><path class="cls-32" d="m920.22,97.08s16.45,24.08,18.49,28.63c2.04,4.55-21.75,120.12-21.75,120.12,0,0-40.8-14.2-38.28-33.15,0,0,7.47-87.57,8.08-89.27.62-1.7,2.39-26.52,5.3-27.01s23.54-9.29,23.54-9.29l12.59,12.24"/><path class="cls-33" d="m983.57,168.47s-35.68-6.13-38.82-7.73l-2.39,10.25,17,14.6,21.39-6.65,2.81-10.47Z"/><path class="cls-33" d="m924.33,159.98s-35.68-6.13-38.82-7.73l-2.39,10.25,17,14.6,21.39-6.65,2.81-10.47Z"/><circle class="cls-31" cx="960.46" cy="177.91" r="4.02"/><circle class="cls-31" cx="900.36" cy="169.06" r="4.02"/><path class="cls-33" d="m887.52,177.1s-6.12,16.54-3.92,17.75,20.4,3.68,20.4,3.68c0,0-17.52-1.55-17-6.35.52-4.8.52-15.09.52-15.09Z"/><path class="cls-33" d="m995.66,121.61s-8.63,18.06-12.22,25.63l-25.91-7.61s15.09-29.71,15.76-31,22.38,12.99,22.38,12.99Z"/><path class="cls-14" d="m1049.13,235.69c-3.32,14.57-6.13,33.3-6.13,33.3l-2.64,7.28,2.5-2.16c3.49-15.95-3.02,1.14-6.92,2.17-3.95,1.04-9.45,8.67-9.45,8.67v-11.27s-12.48-7.98-12.59-4.6l-3.62-3.56-5.09,10.75-4.67-10.75s.29-1.69.68-4.11c.7-4.38,1.72-11.16,1.92-14.63.31-5.38-20.15-36.34-19.22-41.28.61-3.25,7.43-34.32,12.04-55.26,2.41-10.94,4.21-19.11,4.21-19.11l16.82-19.24s32.23,7.15,36.22,35.86c3.88,27.92-2.39,47.35-5.4,51.25s4.67,22.11,1.35,36.68Z"/><path class="cls-20" d="m1043.47,127.03c6.83,11.12,9.53,27,6.38,39.71.97-1.56,1.95-3.13,2.92-4.69-.14,8.49-4.09,16.85-10.54,22.27,1.89.57,3.97.45,5.79-.33-.95,3.41-2.97,6.5-5.7,8.71,2.2-.03,4.39-.31,6.53-.82-5.43,7.02-7.23,16.8-4.65,25.33.18-3.31.36-6.63.55-9.94,3.62,8.48,5.48,17.73,5.43,26.97-.09-12.88-.18-25.76-.28-38.64-.06,1.94.47,3.89,1.5,5.52.59-7.1,1.18-14.19,1.77-21.29.69.05,1.38.1,2.06.15-1.28-3.1-2.11-6.39-2.45-9.73,1.17.06,2.33.11,3.5.17-1.74-6.73-3-13.59-3.78-20.51,1.03.79,2.06,1.57,3.09,2.36-.4-8.42-4.67-18.83-12.13-25.25"/><path class="cls-29" d="m997.76,268.3c-.44,2.11,4.92,3.97,5.78,5.94,1.04-1.7,2.09-3.41,3.13-5.11,1.07.88,1.98,1.97,2.64,3.19,1.96-.23,2.69-3.73,4.59-3.23,1.96.52.84,4.19,2.65,5.11.9-1.23,1.81-2.46,2.71-3.7.3-.4.64-.84,1.13-.92.84-.14,1.43.77,1.77,1.55,1.78,4.09,3.14,8.37,4.05,12.74,1.52-5.22,3.08-10.55,6.25-14.97-.32,9.53,2.29,3.95,3.19,13.45,4.02-4.79,2.76,3.82,3.67-2.36.01,3.4.03,6.8.04,10.2,2.27-11.55,7.82-31.37,6.27-43.04-.75,2.05-6.68,12-7.42,14.05-4.81-1.1-10.04-2.16-14.54-.13-.92.41-1.84.96-2.85.96-1.01,0-18.88-6.01-18.64-6.99"/><g class="cls-45"><path class="cls-17" d="m965.44,237.71c2.52,5.89,25.75,20.82,27.47,15.24.31-.99-32.7-40.31-33.42-41.01-.73-.72-.9-8.59-1.91-8.73-3.64-.5-9.12,3.79-11.81,6.35-2.75,2.61-7.03-3.34-7.96-7.05-.46-1.81-.59-4.24-2.32-4.74-1.01-.29-2.16.29-3.11-.16-1.06-.52-1.25-2.04-2.1-2.88-1.59-1.6-4.27-.09-6.45-.46-1.86-.32.76-8.58-.69-9.82-3-2.56-8.59.43-14.69,2.24-4.14,1.23-2.04-.45-3-.1-1.02.36-1.75,1.28-2.43,2.16-2.26,2.93-4.51,5.86-6.77,8.79-.26.34-.53.72-.5,1.15.04.55.55.9,1,1.17,20.61,12.09,41.22,24.18,61.83,36.27,1.07.63,2.87.96,3.17-.31"/></g><polygon class="cls-37" points="1058.62 294.23 893.97 192.94 891.89 203.62 1056.13 295 1057.69 295 1058.62 294.23"/><polygon class="cls-36" points="891.89 203.66 884.58 216.02 1042.95 295 1056.06 295 891.89 203.66"/><polygon class="cls-37" points="884.65 216.1 876.39 222.95 1034.52 295 1042.94 295 884.65 216.1"/><polygon class="cls-37" points="893.97 192.94 887.05 189.63 884.34 199.16 891.89 203.66 893.97 192.94"/><polygon class="cls-37" points="884.65 216.1 876.91 211.12 869.85 218.4 876.39 222.95 884.65 216.1"/><polygon class="cls-36" points="884.34 199.12 876.91 211.16 884.65 216.14 891.93 203.66 884.34 199.12"/><polygon class="cls-36" points="887.05 189.63 877.87 191.36 875.53 198.19 884.34 199.16 887.05 189.63"/><polygon class="cls-36" points="876.87 211.16 871.79 205.03 865.08 210.6 869.85 218.4 876.87 211.16"/><polygon class="cls-8" points="884.34 199.16 875.53 198.19 871.79 205.03 876.87 211.16 884.34 199.16"/><polygon class="cls-36" points="877.87 191.32 870.06 199.57 865.09 210.56 871.8 205 875.53 198.15 877.87 191.32"/><path class="cls-5" d="m1017.54,289.96c.09-.15.17-.31.21-.5-.08.16-.15.33-.21.5Z"/><path class="cls-5" d="m1025.82,294.04c-.17.39-.17.71-.06.96h9.15c.11-.13.23-.26.35-.38,0,.13,0,.25,0,.38h.76c.28-.86.51-1.75.65-2.65-.03.37.14.74.44.96.36-1.44.71-2.87,1.07-4.31.19.19.38.39.57.58.36-1.34.58-2.71.67-4.09.23.57.47,1.13.7,1.7.02-.23.04-.45.06-.68.3.13.67-.22.56-.53.25.11.51.22.76.33-.28-1.02-.55-2.04-.83-3.05.38.13.75.26,1.13.39-2.2-2.26-4.49-4.77-5.63-7.74-.41-1.07-.9-2.13-1.76-3.02-1.14-1.17-2.81-1.93-4.45-2.66-3.71-1.64-7.44-3.24-11.2-4.8-3.98-1.66-6.69-4.78-11.15-5.27s-.96,0-4.61-.15l13.87,12.81c2.66,3.14,1.19,8.23-3.38,9.4-.66.17-1.41.28-1.82.72-.57.6.65,1.62.09,2.14-5.65,5.2,4.12,7.57,5.8,4.88.06-.17.13-.33.21-.5-.04.18-.11.35-.21.5-.43,1.24-.23,2.61.76,3.44.64.54,1.44,1.2,2.41,1.6h3.42c.53-.21,1.09-.52,1.69-.96Z"/><path class="cls-5" d="m1008.88,283.2c-.53-1.12-1.73-2.23-3.14-2.94-.44-.22-.9-.4-1.35-.46-.83-.1-1.79.24-2.65.27-1.46.05-2.94,0-4.41,0,1,0,2.01.1,2.98.31-.97.3-1.84.93-2.43,1.76.62-.12,1.4-.16,1.72.38.11.18.14.39.16.6.07.75.02,1.52-.15,2.26-.09-.09.14-.19.2-.08s-.01.24-.06.36-.05.29.07.33c.52-.2,1.04-.39,1.57-.59l.19,1.41.78-.67.32,1.21c.15-.31.54-.49.88-.4s.58.44.56.79c.31-.58,1.13-.55,1.79-.53.6.02,1.23-.03,1.73-.36,1.29-.83,1.93-2.19,1.23-3.65Z"/><path class="cls-5" d="m801.7,160.37s-9.86-1.65-10.29,8.32-5.34,29.65-4.05,34.32,18.02-1.32,18.02-1.32l11.84-1.12v-35.9l-15.51-4.3Z"/><path class="cls-29" d="m1001.06,278.25c.05.43.11.85.17,1.28,1.24-2.57,5.19-9.8,10.81-10.73,6.87-1.13,12.2,6.46,12.2,6.46,0,0,2.59-1.45,4.93-2.26s1.62,7.43,1.62,7.43c0,0,4.52-6.95,7.27-7.03,2.73-.08-.69,19.01-.73,19.23.1-.19,9.38-18.2,11.39-23.83.65-1.82,1.08-4,1.46-6.07-.6-1.78-1.28-3.54-2.03-5.26-3.01,2.54-5.72,5.43-8.05,8.61-1.2-.63-.87-2.59-1.87-3.5-1.06-.96-2.77-.12-3.78.9-1,1.03-2.04,2.34-3.48,2.3-.51-6.16-1.02-12.32-1.53-18.48-3.42,4.19-6.52,8.64-9.26,13.31-.7-8-.47-16.06-.23-24.09-3.49,4.61-6.99,9.22-10.48,13.83-.41-3.26-.82-6.52-1.23-9.78-3.21,4.57-5.6,9.73-7,15.14l-6.3,17.82c-1.98,4.48,5.26-7.77,4.6-2.91-.58,4.34.99,3.28,1.5,7.63Z"/><path class="cls-29" d="m792.52,161.38c-.36.23-.72.46-1.08.7,2.91.17,11.3,1.13,14.73,6.4,4.19,6.43-.26,14.95-.26,14.95,0,0,2.51,1.99,4.33,4.01,1.81,2.02-6.01,4.72-6.01,4.72,0,0,8.4,1.65,9.74,4.38,1.33,2.71-17.6,7.23-17.81,7.28.22.02,20.87,1.84,26.91,1.52,1.96-.11,4.13-.58,6.19-1.06,1.35-1.35,2.63-2.76,3.85-4.24-3.69-1.97-7.57-3.48-11.53-4.5.02-1.47,1.96-1.95,2.32-3.34.39-1.47-1.16-2.84-2.56-3.42-1.39-.58-3.07-1.08-3.69-2.54,5.36-3.08,10.73-6.15,16.09-9.23-5.39-1.7-10.86-2.95-16.37-3.76,6.96-4.04,14.38-7.16,21.79-10.27-5.8-1.59-11.6-3.18-17.4-4.77,2.77-1.77,5.55-3.54,8.32-5.31-5.64-1.33-11.42-1.57-16.99-.73l-19.1,1.1c-4.99-.13,9.48,2.05,4.77,3.42-4.21,1.22-2.53,2.37-6.25,4.69Z"/><path class="cls-5" d="m793.99,162.34s-6.04,3.09-6.79,2.34-13.02,1.79-13.02,1.79l11.88,5.9,9.24-.71-1.32-9.32Z"/><path class="cls-5" d="m793.77,170.91s-10,3.58-10.75,2.83-13.02,1.79-13.02,1.79l11.88,5.9,9.24-.71,2.64-9.81Z"/><path class="cls-5" d="m793.23,179.78s-10,3.58-10.75,2.83c-.75-.75-13.02,1.79-13.02,1.79l11.88,5.9,9.24-.71,2.64-9.81Z"/><path class="cls-5" d="m788.44,189.63s-6,8.52-6.76,7.77-13.02,1.79-13.02,1.79l11.88,5.9,9.24-.71-1.35-14.75Z"/><rect class="cls-33" x="1016.21" y="74.72" width="51.15" height="18.17"/><rect class="cls-41" x="1104.39" y="151.66" width="51.15" height="18.17"/><rect class="cls-41" x="766.72" y="198.88" width="51.15" height="18.17"/><rect class="cls-38" x="802.18" y="91.75" width="51.15" height="23.28"/><rect class="cls-33" x="1076.2" y="130.24" width="51.15" height="18.17"/><rect class="cls-33" x="735.99" y="59.37" width="51.15" height="18.17"/><rect class="cls-33" x="684.83" y="234.08" width="51.15" height="18.17"/><rect class="cls-33" x="1060.04" y="245.09" width="39.47" height="18.17"/><rect class="cls-33" x="1129.97" y="130.24" width="39.47" height="18.17"/></g><g id="HEAD"><path class="cls-28" d="m915.06,86.42c-1.1,1.39-5.31,20.93-5.39,27.98s11.71,17.49,11.71,17.49c.23-2.64-5.99-6.43-2.8-6.98s15.04,11.23,15.04,11.23c-1.82-3.22-.37-6.27-.37-6.27,0,0,15.99,1.65,25.26,4.53,9.27,2.88,15.79,13.04,15.79,13.04,2.16-6.21.21-11.31.21-11.31,2.7-.05,7.78,6.31,7.78,6.31v-4.69c.15,5.22,6.67,5.36,6.67,5.36-3.37-.24.78-8.76.78-8.76,0,0,2.72-.68,9.26-1.09,6.54-.41,13.34-6.35,13.34-6.35,0,0-22.79,4.21-25.93-5.63-3.14-9.83-1.3-21.06.88-27.18s3.51-8.54,3.01-18.95c-.5-10.41-12.21-18.7-12.21-18.7,2.02-2.04,6.56-1.04,6.56-1.04-4.62-6.32-17.79-7.03-17.79-7.03,5.91-1.96,12.85.3,12.85.3-4.27.5-19.64-12.77-38.12-4.11-18.48,8.67-32.44,35.12-32.44,35.12"/><path class="cls-18" d="m959.65,136.11s10.92,6.93,13.22,14.97l1.46-3.69s-9.57-12.88-12.12-12.08"/><path class="cls-2" d="m933.96,49.9c4.58-2.47,9.2-4.97,14.19-6.41,5-1.44,10.47-1.78,15.33.07,2.18.83,4.19,2.07,6.42,2.75-2.73-.23-5.46-.47-8.2-.7-2.44-.21-5.29-.25-6.85,1.63,2.85-.61,5.86.1,8.47,1.4s4.88,3.18,7.13,5.03c-3.02-1.92-6.52-3.08-10.09-3.35,3.81-.18,7.5,1.75,10.1,4.54,2.6,2.79,4.21,6.35,5.38,9.98-9.12-10.61-24.22-15.69-37.9-12.75,1.43-1.03,3.05-1.81,4.74-2.29-3.41-.34-6.71,1.36-9.44,3.44-3.37,2.58-6.23,5.83-8.36,9.5,2.34-4.31,5.18-8.35,8.44-12.01"/><path class="cls-2" d="m943.69,63.47c4.05,5.78,6.7,12.54,7.65,19.53.64-3.44.79-6.96.46-10.44-.13-1.34-.33-2.67-.8-3.93-1.03-2.78-3.42-5.02-6.26-5.88"/><path class="cls-2" d="m986.06,123.18c1.86,4.02,6.71,5.61,11.1,6.16,5.47.68,11.37.32,15.93-2.77-6.33.53-12.78-.37-18.73-2.61-3.04-1.14-6.1-2.76-7.79-5.53-1.53-2.5-1.73-5.57-1.89-8.5-.93,3.65-.99,7.53-.16,11.21"/><path class="cls-2" d="m922.85,72.63c-2.06,6.11-4.12,12.21-6.17,18.32-.34-2.79-.61-5.59-.82-8.39-3.05,6.98-5.26,14.32-6.58,21.82-1.53-5.33-2.52-10.82-2.92-16.36-8.23,6.62-16.71,13.38-26.77,16.57,4.72-5,10.35-9.14,16.54-12.15-7.1,2.03-14.21,4.06-21.31,6.09,6.67-3.06,13.35-6.13,20.02-9.19,4.48-2.06,9.04-4.17,12.65-7.52s6.16-8.23,5.5-13.11c1.33,1.92,2.73,3.79,4.19,5.6,2.78-4.41,6.41-8.29,10.62-11.37-.12,2.34-1.2,4.62-2.94,6.19"/><path class="cls-5" d="m976.65,94.45s-.66,3.6,1.12,4.92l-3.3.3s2.02,7.98,6.58,9.16l-2.12,5.03-2.14,5.58,3.59,2.11s-4.01-1.88-4.01.47-3.37,4.37-3.37,4.37c0,0,5.42,4.69,6.13,9.21s-.26,6.98-.26,6.98c0,0-3.59-11.4-8.6-13.34,0,0,2.29,3.34,1.27,10.86,0,0-1.57-10.29-7.79-11.81l-.28,3.01s.87-3.35-2.21-2.72c-3.08.63-3.38.4-3.38.4,0,0-.74,2.89.64,5.43,0,0-3.45-7.9-6.27-8.02-2.81-.12-2.33,7.85-2.33,7.85,0,0-1.63-8.47-4.56-8.13s-4.36,4.39-4.01,7.33c0,0-3.38-4.93-4.59-5.24s-.62.07-.62.07l.51,4.36s-1.28-1.66-5.4-2.98c-4.13-1.32-7.75-12.18-7.92-15.23,0,0,0,3.07.07,5.23,0,0-3.41-6.73-2.38-8.75s.44-5.47.44-5.47c0,0-3.39,2.65-3.01,7.39,0,0-1.98-8.43,3.03-12.63,0,0-3.99-.89-5.61,1.38,0,0,4.8-6.79,8.51-8.22,0,0-2.79-1.48-3.46-1.04s.66-.53.66-.53c0,0,2.18-2.15,4.33-2.31,0,0,1.15-3.29-.37-3.12l3.24.7-1.88-5.29s-.32.31,1.34.66.83-2.17.65-2.15,3.38-10.42,3.38-10.42l1.69,8.29s-.48-8.7.67-7.39,3.5,5.19,3.95,5.22.36-6.9.36-6.9l7.45,9.69s-5.86-21.52-1.37-14.01c4.49,7.51,6.36,9.63,6.02,10.58s.8,10.65,1.3,6.44c.5-4.21,2.81-9.17,2.81-9.17,0,0,.05,2.7.66,5.61,0,0,3.03-5.68,4.44-5.21s2.88,7.61,2.88,7.61l-1.39,3.5s5.13-1.68,4.52-4.59-.69-5.88-.69-5.88c0,0,2,4.01,2.4,6.58s-.29,4.46-.29,4.46c0,0,4.23-4.74,3.68-6.3s.5,5,.5,5c0,0,4.23-1.67,5.07-4.48l1.02,3.31-1.76,3.46-.93,5.16,1.42,3.62Z"/><path class="cls-5" d="m924.3,116.12c.74,8.13,3.98,16.01,9.19,22.3-.04-1.72.5-3.44,1.52-4.83,1.37,5.16,2.73,10.31,4.1,15.47,1.46-1.88,3.08-3.63,4.84-5.24.53,2.95.69,5.97.48,8.96,2.96-4.48,6.32-8.69,10.02-12.58.77-.81,1.81-1.68,2.87-1.35.28,1.66.56,3.32.84,4.99,1.79-3.46,3.12-7.16,3.97-10.97,1.27,1.06,2.28,2.42,2.95,3.93.68-3.61.74-7.34.18-10.98-9.85-1.65-19.92-2.03-29.87-1.12"/><g class="cls-46"><path class="cls-6" d="m949.35,92.92c-8.05,1.91-15.92,4.6-23.46,8,1.4-2.35,3.36-4.37,5.68-5.82-1.92.21-3.81.71-5.59,1.48,2.36-5.54,8.3-9.35,14.32-9.2,3.52.09,7.2,1.64,8.97,4.69"/></g><g class="cls-46"><path class="cls-6" d="m961.62,94.49c5.59,2.42,9.69,7.28,13.58,11.97-.13-1.62-.25-3.25-.38-4.87-.02-.23-.03-.48.09-.68.21-.33.68-.33,1.07-.28,1.33.18,2.63.59,3.82,1.21-.49-3.54-1.11-7.05-1.86-10.54-.06-.28-.14-.59-.39-.73-.2-.12-.44-.09-.67-.06-4.29.55-8.58,1.1-12.88,1.65-.96.12-2.21.59-2.07,1.55"/></g><g class="cls-44"><path class="cls-6" d="m956.16,124.43c-2.85-.73-5.87-.82-8.76-.26-.18.03-.41.12-.41.31,0,.1.07.19.13.26.91,1.04,1.81,2.08,2.72,3.12.17.19.34.39.56.52.3.17.66.2,1,.18,1.12-.07,2.17-.63,3-1.39s1.46-1.71,2.03-2.67"/></g><path class="cls-8" d="m933.99,82.66s-2.68,10.07,4.15,11.13c0,0,7.26-3.96,18.76-1.6,11.5,2.36,12.9,5.72,16.48,5.82,3.59.1,6.01-9.91,6.01-9.91l-8.26-3.44-9.76,3.58s-5.51.49-9.53-1.55c-4.02-2.04-9.01-5.41-9.01-5.41l-5.65-.68-3.19,2.07Z"/><g class="cls-49"><circle class="cls-12" cx="945.89" cy="86.78" r="4.35"/></g><circle class="cls-22" cx="946.13" cy="85.97" r="3.38"/><g class="cls-47"><circle class="cls-12" cx="967.52" cy="89.56" r="4.35"/></g><circle class="cls-22" cx="967.31" cy="88.09" r="3.38"/><path class="cls-2" d="m952.56,88.16s-7.09-5.68-16.78-4.71c0,0-5.37,1.81-6.27,2.52,0,0,2.65-3.04,4.49-3.31,0,0-3.14-1.11-4.1.08,0,0,3.06-2.33,4.9-1.95,0,0-3.75-1.51-5.21-.21,0,0,2.57-3.7,11.02-2.53,8.45,1.17,11.96,10.1,11.96,10.1Z"/><path class="cls-2" d="m960.06,89.06s8.23-3.84,17.42-.61c0,0,4.79,3.03,5.5,3.93,0,0-1.86-3.58-3.58-4.27,0,0,3.31-.34,3.96,1.05,0,0-2.42-2.99-4.3-3.05,0,0,4-.59,5.11,1.02,0,0-1.62-4.2-10.11-5.06-8.49-.85-14.01,6.99-14.01,6.99Z"/><path class="cls-35" d="m936.53,111.79s3.55-12.06,11.38-10.72c7.83,1.34,8.76,6.19,16.38,5.75,0,0,2.88-.07,5.47,5.05,2.59,5.11,2.58,5.84,2.58,5.84,0,0-8.34,4.32-15.66,3.46-7.32-.86-14.29-2.57-16.42-2.23s-4.46-5.71-3.73-7.15Z"/><path class="cls-23" d="m946.77,101.7s-8.47,12.46-7.33,16.02l-3.17-2.43-.52-2.11,2.29-8.21,3.63-2.95,5.11-.33Z"/><path class="cls-23" d="m965.23,122.1s3.4-6.45,1.8-10.86-1.49-4.25-1.49-4.25l1.48-.44,2.56,3.58,2.99,7.59-1.62,2.36-5.72,2.02Z"/><path class="cls-22" d="m940.14,115.51c3.31-.79,6.69-1.26,10.09-1.41.72-.03,1.46-.04,2.12.26s1.17,1.01,1.03,1.71c1-1.62,3.28-1.83,5.16-1.54,3.44.53,6.7,2.15,9.2,4.58.27.26.54.63.38.96-.09.17-.27.27-.44.35-2.97,1.4-6.4,1.49-9.67,1.17s-6.51-1-9.8-1.05c-2.19-.03-4.4.22-6.56-.18-.96-.17-1.94-.51-2.56-1.26s-.66-2.02.11-2.61"/><path class="cls-8" d="m937.45,91.92c-1.73.06-3.48.12-5.17.52-1.69.39-3.34,1.14-4.53,2.4,1.7-2.69,4.44-4.7,7.51-5.51-1.9-.23-3.82-.31-5.73-.25,1.44-1.71,3.53-2.85,5.74-3.16.2-.03.41-.05.58.05.22.12.31.38.39.62.41,1.33.82,2.65,1.24,3.98"/><path class="cls-3" d="m948.51,90.39s.62,9.13,6.51,10.88c0,0,7.2-1.75,8.57-7.77,0,0-14.24,4.02-15.08-3.11Z"/><path class="cls-5" d="m959.82,92.87l.1-.63c.09-.58-.31-1.13-.89-1.22l-4.79-.75c-.58-.09-1.13.31-1.22.89l-.1.63c-1.43-.89-2.57-1.28-3.98-1.46-.21-.03-.39.16-.35.37.27,1.44,1.51,6.32,6.48,9.33,0,0,5.61-1.38,8.6-6.53.1-.18,0-.41-.19-.46-.6-.16-1.89-.39-3.66-.16Z"/><path class="cls-10" d="m942.52,118.92s-1.91.05-1.45-3.17,1.42-5.1.77-5.29-3.02,1.69-4.81,4.28c0,0-.89.66,1.64,2.52s3.85,1.67,3.85,1.67Z"/><path class="cls-4" d="m965.82,120.38s1.85.45,2.08-2.8-.33-5.29.35-5.34,2.6,2.28,3.81,5.19c0,0,.74.83-2.13,2.12-2.87,1.29-4.12.83-4.12.83Z"/><polygon class="cls-25" points="943.92 119.16 942.47 116.13 947.8 116.67 947.52 119.52 943.92 119.16"/><polygon class="cls-25" points="963.7 121.01 965.37 118.1 960.01 118.24 960.09 121.1 963.7 121.01"/><rect class="cls-25" x="949.23" y="116.33" width="3.61" height="4.74" transform="translate(738.15 1053.17) rotate(-84.28)"/><rect class="cls-25" x="954.97" y="117.17" width="3.61" height="4.74" transform="translate(742.49 1059.64) rotate(-84.28)"/><path class="cls-30" d="m935.41,112.19s-2.22,4.14.87,7.39c3.09,3.25,9.02.75,17.54,2.55,8.51,1.8,13.29,4.04,16.75,1.2,3.46-2.84,2.48-6.2.49-9.31l1.29,3.68-3.36,1.39-8.16,2.04-7.17-.33-7.61-1.82-1.96-.11c-3.3-.19-6.25-2.09-7.79-5l-.88-1.67Z"/><path class="cls-15" d="m941.75,101.93s-.13,5.89,2.7,8.4l.84-.12,3.19-8.84s-1.28-.16-2.93-.63-3.81,1.2-3.81,1.2Z"/><path class="cls-24" d="m967.62,107s-1.9,5.58-5.42,6.96l-.75-.41.73-6.7s.88-.85,2.59-.73c1.71.12,2.85.87,2.85.87Z"/><polygon class="cls-25" points="948.86 101.47 947.34 105.21 950.21 105.71 951.16 101.88 948.86 101.47"/><polygon class="cls-25" points="961.44 106.36 961.6 110.39 958.73 109.89 959.15 105.96 961.44 106.36"/><polygon class="cls-25" points="951.6 101.97 949.89 106.69 953.18 107.89 954.85 103.25 951.6 101.97"/><polygon class="cls-25" points="955.43 103.94 953.69 108.65 956.97 109.87 958.68 105.24 955.43 103.94"/><path class="cls-30" d="m935.41,112.19s.86-9.58,6.92-11.82c6.06-2.24,10.42,1.13,14.21,3.39,3.79,2.26,9.22.9,10.97,2.69s4.73,10.48,4.73,10.48l-3.13-6.87-2.81-3.19-6.28-.44-6.75-3.72-5.08-1.33c-1.61-.42-3.32-.07-4.63.95l-3.79,2.95-3.41,8.61-.92-1.7Z"/><path class="cls-16" d="m989.81,85.46s-24-9.77-40.06-9.84c-20.86-.08-41.4,5.67-41.4,5.67l-.31-2.67,55.5-10.12,26.19,13.18.08,3.78Z"/><path class="cls-8" d="m991.31,69.9c.03.4.05.8.07,1.19h0c.13,2.95-.04,5.71-.29,8.01-.24,2.16-.56,3.9-.79,5.01-.18.85-.31,1.33-.31,1.33-35.52-18.88-75.31-7.33-81.09-5.49-.47.15-.72.24-.72.24.05-.22.11-.45.18-.69.02-.06.03-.12.05-.18.07-.25.15-.52.24-.79.12-.35.24-.71.38-1.08.06-.16.13-.33.19-.5.32-.82.69-1.68,1.1-2.56.22-.48.46-.98.7-1.47,1.08-2.21,2.34-4.52,3.59-6.68h0c.15-.26.29-.51.44-.76h0c1.36-2.34,2.68-4.47,3.71-6.09.29-.46.56-.87.8-1.24.15-.23.29-.45.42-.64.25-.39.45-.69.59-.9.14-.21.21-.32.21-.32.31-.12.62-.25.92-.37.38-.15.77-.29,1.15-.44.16-.06.33-.12.5-.18.51-.19,1.02-.36,1.54-.54.5-.17.99-.33,1.49-.49.4-.12.79-.25,1.19-.36.33-.1.67-.2,1-.29.38-.11.76-.21,1.14-.31.17-.05.35-.09.52-.14.52-.14,1.04-.26,1.56-.39.5-.12.99-.23,1.49-.34.4-.09.8-.17,1.19-.25.42-.08.84-.17,1.25-.24.38-.07.75-.14,1.13-.2.07-.01.14-.02.2-.03.53-.09,1.05-.17,1.57-.25.51-.08,1.02-.15,1.53-.22.41-.06.82-.11,1.24-.16.37-.05.74-.09,1.11-.13.38-.04.75-.08,1.12-.11.09,0,.17-.02.26-.02.53-.05,1.05-.09,1.57-.13.48-.04.96-.07,1.44-.1.4-.02.8-.05,1.19-.06.13,0,.26-.01.39-.02.53-.02,1.05-.04,1.57-.06.43-.01.86-.02,1.29-.03.39,0,.79,0,1.18,0,.15,0,.3,0,.46,0,.16,0,.32,0,.48,0,.13,0,.25,0,.38,0,.36,0,.72,0,1.08.02.19,0,.37,0,.55.01.52.01,1.04.03,1.55.05.35.01.7.03,1.04.05.39.02.79.04,1.18.07.19.01.39.02.58.04.26.02.52.04.78.05.03,0,.06,0,.09,0,.36.03.71.05,1.06.08.23.02.45.04.67.06.52.04,1.03.09,1.53.15.3.03.6.06.9.1.4.04.8.09,1.2.14.23.03.45.05.67.08.65.08,1.29.17,1.91.26,11.21,1.61,18.67,4.34,18.67,4.34.9,1.51,1.62,3.09,2.19,4.71.05.13.09.27.14.4.05.14.09.28.14.42.08.24.15.48.22.72.1.33.19.66.27,1h0c.07.26.13.51.19.77.46,2,.74,4.02.87,5.97Z"/><path class="cls-8" d="m912.19,78.6c-2.76-1.07-5.6-2.16-8.56-2.06s-6.07,1.67-7.05,4.46c-.11.3-.18.64-.07.93.18.47.75.65,1.25.72,4.1.6,8.04-1.62,11.6-3.75-1.91.79-3.73,1.81-5.39,3.03,2.51.22,5.06-1.35,6.01-3.67l2.2.34Z"/><path class="cls-13" d="m910.77,78.16l-.79-.34.87-2.88-.63.31.2-.7.76-.29.43.18-.84,3.71Z"/><path class="cls-13" d="m913.9,77.48l-.81-.28.66-2.93-.61.36.14-.71.74-.35.44.15-.57,3.77Z"/><path class="cls-13" d="m917.24,76.76l-.83-.21.39-2.98-.57.41.08-.72.7-.41.45.11-.23,3.8Z"/><path class="cls-13" d="m920.21,72.55c.36,0,.67.19.92.54.25.35.37.77.36,1.26,0,.49-.15.9-.41,1.25-.26.34-.58.51-.94.5-.37,0-.67-.19-.92-.54-.25-.35-.37-.77-.36-1.26,0-.49.15-.91.41-1.25.26-.34.58-.51.94-.5Zm.04,2.75c.13,0,.24-.1.33-.31.09-.22.14-.47.15-.77,0-.3-.04-.56-.12-.78-.09-.22-.2-.33-.32-.33-.13,0-.24.1-.33.32-.1.21-.15.47-.15.77,0,.3.04.56.12.78.09.21.19.32.32.33Z"/><path class="cls-13" d="m924.58,75.52l-.85-.11.04-3.01-.52.47v-.72s.65-.49.65-.49l.46.05.22,3.8Z"/><path class="cls-13" d="m929.02,71.26c.36,0,.67.19.92.54.25.35.37.77.36,1.27,0,.49-.15.9-.41,1.25-.26.34-.58.51-.94.5-.37,0-.67-.19-.92-.54-.25-.35-.37-.77-.36-1.26,0-.49.15-.91.41-1.25.26-.34.58-.51.94-.5Zm.04,2.75c.13,0,.24-.1.33-.31.09-.22.14-.47.15-.77,0-.3-.04-.56-.12-.78-.09-.22-.2-.33-.32-.33-.13,0-.24.1-.33.32-.1.21-.15.47-.15.77,0,.3.04.56.12.78.09.21.19.32.32.33Z"/><path class="cls-13" d="m934.17,70.57c.36,0,.67.19.92.54.25.35.37.77.36,1.26,0,.49-.15.9-.41,1.25-.26.34-.58.51-.94.5-.37,0-.67-.19-.92-.54-.25-.35-.37-.77-.36-1.26,0-.49.15-.91.41-1.25.26-.34.58-.51.94-.5Zm.04,2.75c.13,0,.24-.1.33-.31.09-.22.14-.47.15-.77,0-.3-.04-.56-.12-.78-.09-.22-.2-.33-.32-.33-.13,0-.24.1-.33.32-.1.21-.15.47-.15.77,0,.3.04.56.12.78.09.21.19.32.32.33Z"/><path class="cls-13" d="m938.75,73.71l-.85-.11.04-3.01-.52.47v-.72s.65-.49.65-.49l.46.05.22,3.8Z"/><path class="cls-13" d="m942.56,69.52c.36,0,.67.19.92.54.25.35.37.77.36,1.27,0,.49-.15.9-.41,1.25-.26.34-.58.51-.94.5-.37,0-.67-.19-.92-.54-.25-.35-.37-.77-.36-1.26,0-.49.15-.91.41-1.25.26-.34.58-.51.94-.5Zm.04,2.75c.13,0,.24-.1.33-.31.09-.22.14-.47.15-.77,0-.3-.04-.56-.12-.78-.09-.22-.2-.33-.32-.33-.13,0-.24.1-.33.32-.1.21-.15.47-.15.77,0,.3.04.56.12.78.09.21.19.32.32.33Z"/><path class="cls-13" d="m946.98,73.66l-.85-.11.04-3.01-.52.47v-.72s.65-.49.65-.49l.46.05.22,3.8Z"/><path class="cls-13" d="m950.31,69.98c.36,0,.67.19.92.54.25.35.37.77.36,1.27,0,.49-.15.9-.41,1.25-.26.34-.58.51-.94.5-.37,0-.67-.19-.92-.54-.25-.35-.37-.77-.36-1.26,0-.49.15-.91.41-1.25.26-.34.58-.51.94-.5Zm.04,2.75c.13,0,.24-.1.33-.31.09-.22.14-.47.15-.77,0-.3-.04-.56-.12-.78-.09-.22-.2-.33-.32-.33-.13,0-.24.1-.33.32-.1.21-.15.47-.15.77,0,.3.04.56.12.78.09.21.19.32.32.33Z"/><path class="cls-13" d="m954.79,73.96l-.84-.15.19-3-.54.45.03-.72.68-.46.46.08.03,3.81Z"/><path class="cls-13" d="m962.24,71.4c.36,0,.67.19.92.54.25.35.37.77.36,1.27,0,.49-.15.9-.41,1.25-.26.34-.58.51-.94.5-.37,0-.67-.19-.92-.54-.25-.35-.37-.77-.36-1.26,0-.49.15-.91.41-1.25.26-.34.58-.51.94-.5Zm.04,2.75c.13,0,.24-.1.33-.31.09-.22.14-.47.15-.77,0-.3-.04-.56-.12-.78-.09-.22-.2-.33-.32-.33-.13,0-.24.1-.33.32-.1.21-.15.47-.15.77,0,.3.04.56.12.78.09.21.19.32.32.33Z"/><path class="cls-13" d="m958.63,74.34l-.84-.16.23-3-.55.44.04-.72.68-.45.46.08-.02,3.81Z"/><path class="cls-13" d="m983.38,77.51c.36,0,.67.19.92.54.25.35.37.77.36,1.27,0,.49-.15.9-.41,1.25-.26.34-.58.51-.94.5-.37,0-.67-.19-.92-.54-.25-.35-.37-.77-.36-1.26,0-.49.15-.91.41-1.25s.58-.51.94-.5Zm.04,2.75c.13,0,.24-.1.33-.31.09-.22.14-.47.15-.77,0-.3-.04-.56-.12-.78-.09-.22-.2-.33-.32-.33-.13,0-.24.1-.33.32-.1.21-.15.47-.15.77,0,.3.04.56.12.78.09.21.19.32.32.33Z"/><path class="cls-13" d="m974.96,78.24l-.81-.29.69-2.93-.61.35.15-.71.74-.34.44.15-.61,3.76Z"/><path class="cls-13" d="m986.85,82.62l-.81-.29.69-2.93-.61.35.15-.71.74-.34.44.15-.61,3.76Z"/><path class="cls-13" d="m989.96,84.51l-.81-.29.69-2.93-.61.35.15-.71.74-.34.44.15-.61,3.76Z"/><path class="cls-13" d="m967.02,72.5c.36,0,.67.19.92.54.25.35.37.77.36,1.27,0,.49-.15.9-.41,1.25-.26.34-.58.51-.94.5-.37,0-.67-.19-.92-.54-.25-.35-.37-.77-.36-1.26,0-.49.15-.91.41-1.25.26-.34.58-.51.94-.5Zm.04,2.75c.13,0,.24-.1.33-.31.09-.22.14-.47.15-.77,0-.3-.04-.56-.12-.78-.09-.22-.2-.33-.32-.33-.13,0-.24.1-.33.32-.1.21-.15.47-.15.77,0,.3.04.56.12.78.09.21.19.32.32.33Z"/><path class="cls-13" d="m979.34,75.93c.36,0,.67.19.92.54.25.35.37.77.36,1.27,0,.49-.15.9-.41,1.25-.26.34-.58.51-.94.5-.37,0-.67-.19-.92-.54-.25-.35-.37-.77-.36-1.26,0-.49.15-.91.41-1.25.26-.34.58-.51.94-.5Zm.04,2.75c.13,0,.24-.1.33-.31.09-.22.14-.47.15-.77,0-.3-.04-.56-.12-.78-.09-.22-.2-.33-.32-.33-.13,0-.24.1-.33.32-.1.21-.15.47-.15.77,0,.3.04.56.12.78.09.21.19.32.32.33Z"/><path class="cls-13" d="m971.05,77.11l-.83-.19.35-2.99-.57.42.07-.72.7-.42.46.1-.17,3.8Z"/><path class="cls-13" d="m915.28,65.39l-.22.08h0c-.15.25-.29.5-.44.76l.33-.16-.87,2.88.79.34.84-3.71-.43-.18Z"/><path class="cls-13" d="m918.01,68.6l-.81-.28.66-2.93-.61.36.14-.71.74-.35.44.15-.57,3.77Z"/><path class="cls-13" d="m921.35,67.89l-.83-.21.39-2.98-.57.41.08-.72.7-.41.45.11-.23,3.8Z"/><path class="cls-13" d="m924.31,63.67c.36,0,.67.19.92.54.25.35.37.77.36,1.26,0,.49-.15.9-.41,1.25-.26.34-.58.51-.94.5-.37,0-.67-.19-.92-.54-.25-.35-.37-.77-.36-1.26,0-.49.15-.91.41-1.25.26-.34.58-.51.94-.5Zm.04,2.75c.13,0,.24-.1.33-.31.09-.22.14-.47.15-.77,0-.3-.04-.56-.12-.78-.09-.22-.2-.33-.32-.33-.13,0-.24.1-.33.32-.1.21-.15.47-.15.77,0,.3.04.56.12.78.09.21.19.32.32.33Z"/><path class="cls-13" d="m928.69,66.65l-.85-.11.04-3.01-.52.47v-.72s.65-.49.65-.49l.46.05.22,3.8Z"/><path class="cls-13" d="m933.12,62.38c.36,0,.67.19.92.54.25.35.37.77.36,1.27,0,.49-.15.9-.41,1.25-.26.34-.58.51-.94.5-.37,0-.67-.19-.92-.54-.25-.35-.37-.77-.36-1.26,0-.49.15-.91.41-1.25.26-.34.58-.51.94-.5Zm.04,2.75c.13,0,.24-.1.33-.31.09-.22.14-.47.15-.77,0-.3-.04-.56-.12-.78-.09-.22-.2-.33-.32-.33-.13,0-.24.1-.33.32-.1.21-.15.47-.15.77,0,.3.04.56.12.78.09.21.19.32.32.33Z"/><path class="cls-13" d="m938.27,61.7c.36,0,.67.19.92.54.25.35.37.77.36,1.26,0,.49-.15.9-.41,1.25-.26.34-.58.51-.94.5-.37,0-.67-.19-.92-.54-.25-.35-.37-.77-.36-1.26,0-.49.15-.91.41-1.25.26-.34.58-.51.94-.5Zm.04,2.75c.13,0,.24-.1.33-.31.09-.22.14-.47.15-.77,0-.3-.04-.56-.12-.78-.09-.22-.2-.33-.32-.33-.13,0-.24.1-.33.32-.1.21-.15.47-.15.77,0,.3.04.56.12.78.09.21.19.32.32.33Z"/><path class="cls-13" d="m942.85,64.83l-.85-.11.04-3.01-.52.47v-.72s.65-.49.65-.49l.46.05.22,3.8Z"/><path class="cls-13" d="m946.66,60.64c.36,0,.67.19.92.54.25.35.37.77.36,1.27,0,.49-.15.9-.41,1.25-.26.34-.58.51-.94.5-.37,0-.67-.19-.92-.54-.25-.35-.37-.77-.36-1.26,0-.49.15-.91.41-1.25.26-.34.58-.51.94-.5Zm.04,2.75c.13,0,.24-.1.33-.31.09-.22.14-.47.15-.77,0-.3-.04-.56-.12-.78-.09-.22-.2-.33-.32-.33-.13,0-.24.1-.33.32-.1.21-.15.47-.15.77,0,.3.04.56.12.78.09.21.19.32.32.33Z"/><path class="cls-13" d="m951.08,64.79l-.85-.11.04-3.01-.52.47v-.72s.65-.49.65-.49l.46.05.22,3.8Z"/><path class="cls-13" d="m954.41,61.11c.36,0,.67.19.92.54.25.35.37.77.36,1.27,0,.49-.15.9-.41,1.25-.26.34-.58.51-.94.5-.37,0-.67-.19-.92-.54-.25-.35-.37-.77-.36-1.26,0-.49.15-.91.41-1.25.26-.34.58-.51.94-.5Zm.04,2.75c.13,0,.24-.1.33-.31.09-.22.14-.47.15-.77,0-.3-.04-.56-.12-.78-.09-.22-.2-.33-.32-.33-.13,0-.24.1-.33.32-.1.21-.15.47-.15.77,0,.3.04.56.12.78.09.21.19.32.32.33Z"/><path class="cls-13" d="m958.9,65.08l-.84-.15.19-3-.54.45.03-.72.68-.46.46.08.03,3.81Z"/><path class="cls-13" d="m966.34,62.52c.36,0,.67.19.92.54.25.35.37.77.36,1.27,0,.49-.15.9-.41,1.25-.26.34-.58.51-.94.5-.37,0-.67-.19-.92-.54-.25-.35-.37-.77-.36-1.26,0-.49.15-.91.41-1.25.26-.34.58-.51.94-.5Zm.04,2.75c.13,0,.24-.1.33-.31.09-.22.14-.47.15-.77,0-.3-.04-.56-.12-.78-.09-.22-.2-.33-.32-.33-.13,0-.24.1-.33.32-.1.21-.15.47-.15.77,0,.3.04.56.12.78.09.21.19.32.32.33Z"/><path class="cls-13" d="m962.74,65.47l-.84-.16.23-3-.55.44.04-.72.68-.45.46.08-.02,3.81Z"/><path class="cls-13" d="m987.48,68.64c.36,0,.67.19.92.54.25.35.37.77.36,1.27,0,.49-.15.9-.41,1.25-.26.34-.58.51-.94.5-.37,0-.67-.19-.92-.54-.25-.35-.37-.77-.36-1.26,0-.49.15-.91.41-1.25s.58-.51.94-.5Zm.04,2.75c.13,0,.24-.1.33-.31.09-.22.14-.47.15-.77,0-.3-.04-.56-.12-.78-.09-.22-.2-.33-.32-.33-.13,0-.24.1-.33.32-.1.21-.15.47-.15.77,0,.3.04.56.12.78.09.21.19.32.32.33Z"/><path class="cls-13" d="m979.06,69.36l-.81-.29.69-2.93-.61.35.15-.71.74-.34.44.15-.61,3.76Z"/><path class="cls-13" d="m991.12,69.84l-.74.34-.15.71.61-.35-.69,2.93.81.29.43-2.65h0c-.02-.39-.04-.79-.07-1.19l-.19-.07Z"/><path class="cls-13" d="m971.13,63.62c.36,0,.67.19.92.54.25.35.37.77.36,1.27,0,.49-.15.9-.41,1.25-.26.34-.58.51-.94.5-.37,0-.67-.19-.92-.54-.25-.35-.37-.77-.36-1.26,0-.49.15-.91.41-1.25.26-.34.58-.51.94-.5Zm.04,2.75c.13,0,.24-.1.33-.31.09-.22.14-.47.15-.77,0-.3-.04-.56-.12-.78-.09-.22-.2-.33-.32-.33-.13,0-.24.1-.33.32-.1.21-.15.47-.15.77,0,.3.04.56.12.78.09.21.19.32.32.33Z"/><path class="cls-13" d="m983.44,67.05c.36,0,.67.19.92.54.25.35.37.77.36,1.27,0,.49-.15.9-.41,1.25-.26.34-.58.51-.94.5-.37,0-.67-.19-.92-.54-.25-.35-.37-.77-.36-1.26,0-.49.15-.91.41-1.25.26-.34.58-.51.94-.5Zm.04,2.75c.13,0,.24-.1.33-.31.09-.22.14-.47.15-.77,0-.3-.04-.56-.12-.78-.09-.22-.2-.33-.32-.33-.13,0-.24.1-.33.32-.1.21-.15.47-.15.77,0,.3.04.56.12.78.09.21.19.32.32.33Z"/><path class="cls-13" d="m975.15,68.23l-.83-.19.35-2.99-.57.42.07-.72.7-.42.46.1-.17,3.8Z"/><path class="cls-13" d="m920.69,56.54l-.13.06c-.14.21-.34.51-.59.9l.44-.26-.66,2.93.81.28.57-3.77-.44-.15Z"/><path class="cls-13" d="m923.91,59.73l-.83-.21.39-2.98-.57.41.08-.72.7-.41.45.11-.23,3.8Z"/><path class="cls-13" d="m926.87,55.52c.36,0,.67.19.92.54.25.35.37.77.36,1.26,0,.49-.15.9-.41,1.25-.26.34-.58.51-.94.5-.37,0-.67-.19-.92-.54-.25-.35-.37-.77-.36-1.26,0-.49.15-.91.41-1.25.26-.34.58-.51.94-.5Zm.04,2.75c.13,0,.24-.1.33-.31.09-.22.14-.47.15-.77,0-.3-.04-.56-.12-.78-.09-.22-.2-.33-.32-.33-.13,0-.24.1-.33.32-.1.21-.15.47-.15.77,0,.3.04.56.12.78.09.21.19.32.32.33Z"/><path class="cls-13" d="m931.25,58.5l-.85-.11.04-3.01-.52.47v-.72s.65-.49.65-.49l.46.05.22,3.8Z"/><path class="cls-13" d="m935.69,54.23c.36,0,.67.19.92.54.25.35.37.77.36,1.27,0,.49-.15.9-.41,1.25-.26.34-.58.51-.94.5-.37,0-.67-.19-.92-.54-.25-.35-.37-.77-.36-1.26,0-.49.15-.91.41-1.25.26-.34.58-.51.94-.5Zm.04,2.75c.13,0,.24-.1.33-.31.09-.22.14-.47.15-.77,0-.3-.04-.56-.12-.78-.09-.22-.2-.33-.32-.33-.13,0-.24.1-.33.32-.1.21-.15.47-.15.77,0,.3.04.56.12.78.09.21.19.32.32.33Z"/><path class="cls-13" d="m940.84,53.55c.36,0,.67.19.92.54.25.35.37.77.36,1.26,0,.49-.15.9-.41,1.25-.26.34-.58.51-.94.5-.37,0-.67-.19-.92-.54-.25-.35-.37-.77-.36-1.26,0-.49.15-.91.41-1.25.26-.34.58-.51.94-.5Zm.04,2.75c.13,0,.24-.1.33-.31.09-.22.14-.47.15-.77,0-.3-.04-.56-.12-.78-.09-.22-.2-.33-.32-.33-.13,0-.24.1-.33.32-.1.21-.15.47-.15.77,0,.3.04.56.12.78.09.21.19.32.32.33Z"/><path class="cls-13" d="m945.41,56.68l-.85-.11.04-3.01-.52.47v-.72s.65-.49.65-.49l.46.05.22,3.8Z"/><path class="cls-13" d="m949.23,52.49c.36,0,.67.19.92.54.25.35.37.77.36,1.27,0,.49-.15.9-.41,1.25-.26.34-.58.51-.94.5-.37,0-.67-.19-.92-.54-.25-.35-.37-.77-.36-1.26,0-.49.15-.91.41-1.25.26-.34.58-.51.94-.5Zm.04,2.75c.13,0,.24-.1.33-.31.09-.22.14-.47.15-.77,0-.3-.04-.56-.12-.78-.09-.22-.2-.33-.32-.33-.13,0-.24.1-.33.32-.1.21-.15.47-.15.77,0,.3.04.56.12.78.09.21.19.32.32.33Z"/><path class="cls-13" d="m953.65,56.64l-.85-.11.04-3.01-.52.47v-.72s.65-.49.65-.49l.46.05.22,3.8Z"/><path class="cls-13" d="m956.98,52.95c.36,0,.67.19.92.54.25.35.37.77.36,1.27,0,.49-.15.9-.41,1.25-.26.34-.58.51-.94.5-.37,0-.67-.19-.92-.54-.25-.35-.37-.77-.36-1.26,0-.49.15-.91.41-1.25.26-.34.58-.51.94-.5Zm.04,2.75c.13,0,.24-.1.33-.31.09-.22.14-.47.15-.77,0-.3-.04-.56-.12-.78-.09-.22-.2-.33-.32-.33-.13,0-.24.1-.33.32-.1.21-.15.47-.15.77,0,.3.04.56.12.78.09.21.19.32.32.33Z"/><path class="cls-13" d="m961.46,56.93l-.84-.15.19-3-.54.45.03-.72.68-.46.46.08.03,3.81Z"/><path class="cls-13" d="m968.9,54.37c.36,0,.67.19.92.54.25.35.37.77.36,1.27,0,.49-.15.9-.41,1.25-.26.34-.58.51-.94.5-.37,0-.67-.19-.92-.54-.25-.35-.37-.77-.36-1.26,0-.49.15-.91.41-1.25.26-.34.58-.51.94-.5Zm.04,2.75c.13,0,.24-.1.33-.31.09-.22.14-.47.15-.77,0-.3-.04-.56-.12-.78-.09-.22-.2-.33-.32-.33-.13,0-.24.1-.33.32-.1.21-.15.47-.15.77,0,.3.04.56.12.78.09.21.19.32.32.33Z"/><path class="cls-13" d="m965.3,57.31l-.84-.16.23-3-.55.44.04-.72.68-.45.46.08-.02,3.81Z"/><path class="cls-13" d="m990.25,63.17c-.05.04-.11.07-.16.06-.13,0-.23-.11-.32-.33-.09-.22-.13-.48-.12-.78,0-.26.04-.48.11-.67-.04-.14-.09-.28-.14-.42-.04-.13-.09-.27-.14-.4-.14.08-.26.2-.38.35-.26.34-.4.76-.41,1.25,0,.49.11.91.36,1.26.25.35.56.53.92.54.16,0,.32-.03.46-.1-.06-.26-.12-.51-.19-.77Z"/><path class="cls-13" d="m991.31,69.9l.25.09-.18,1.1c-.02-.39-.04-.79-.07-1.19Z"/><path class="cls-13" d="m981.63,61.21l-.81-.29.69-2.93-.61.35.15-.71.74-.34.44.15-.61,3.76Z"/><path class="cls-13" d="m973.69,55.47c.36,0,.67.19.92.54.25.35.37.77.36,1.27,0,.49-.15.9-.41,1.25-.26.34-.58.51-.94.5-.37,0-.67-.19-.92-.54-.25-.35-.37-.77-.36-1.26,0-.49.15-.91.41-1.25.26-.34.58-.51.94-.5Zm.04,2.75c.13,0,.24-.1.33-.31.09-.22.14-.47.15-.77,0-.3-.04-.56-.12-.78-.09-.22-.2-.33-.32-.33-.13,0-.24.1-.33.32-.1.21-.15.47-.15.77,0,.3.04.56.12.78.09.21.19.32.32.33Z"/><path class="cls-13" d="m986.01,58.9c.36,0,.67.19.92.54.25.35.37.77.36,1.27,0,.49-.15.9-.41,1.25-.26.34-.58.51-.94.5-.37,0-.67-.19-.92-.54-.25-.35-.37-.77-.36-1.26,0-.49.15-.91.41-1.25.26-.34.58-.51.94-.5Zm.04,2.75c.13,0,.24-.1.33-.31.09-.22.14-.47.15-.77,0-.3-.04-.56-.12-.78-.09-.22-.2-.33-.32-.33-.13,0-.24.1-.33.32-.1.21-.15.47-.15.77,0,.3.04.56.12.78.09.21.19.32.32.33Z"/><path class="cls-13" d="m977.72,60.08l-.83-.19.35-2.99-.57.42.07-.72.7-.42.46.1-.17,3.8Z"/><g class="cls-44"><path class="cls-6" d="m927.43,60.33c2.95-2.4,6.13-4.51,9.48-6.3l.4,5.13c1.93-1.81,3.73-3.74,5.4-5.79.34,2,.67,4,1.01,6,1.68-1.72,3.35-3.45,5.03-5.17.18-.19.39-.39.66-.41.24-.02.45.12.65.25,1.04.75,1.86,1.79,2.35,2.97.48-.87.97-1.75,1.45-2.62.17-.31.42-.67.78-.64.21.02.38.16.53.3,1.24,1.12,2.48,2.24,3.72,3.36.44-.28.47-.89.54-1.41s.36-1.14.88-1.11c.22.01.41.15.59.28,1.07.8,2.09,1.67,3.04,2.6-.49-.09-.87-.59-.83-1.08,1.5-.08,2.88.74,4.32,1.14,1.64.45,3.43.35,5.01-.29-1.98-1.13-3.68-2.75-4.91-4.67-.38-.6-.73-1.24-1.29-1.68-.85-.66-2.01-.73-3.09-.77-3.01-.11-6.03-.22-9.04-.32-2.9-.1-5.81-.21-8.71-.05-3.27.18-6.28-.7-9.08.99-1.03.62-2.95.77-3.88,1.54-2.04,1.67-3.44,5.39-5.07,7.45"/></g><path class="cls-2" d="m962.7,49.34c.35,2.99,1.83,5.24,1.04,8.98.47-3.88-2.42-4.9-6.83-7.84.15,2.55.3,5.1.46,7.64-.7-1.63-1.4-3.26-2.1-4.88-.29-.67-.99-1.46-1.57-1.03-.2.15-.28.41-.36.64-.38,1.24-.77,2.48-1.15,3.72-.68-2.19-1.53-4.32-2.54-6.37-2.41,2.72-4.63,5.62-6.64,8.65-.21-3.33.5-6.72,2.01-9.69-3.25,2.69-5.98,5.99-8.02,9.68.05-2.75,1.61-5.22,3.12-7.53-5.47,1.24-10.37,4.8-13.24,9.61,1.48-5.13,5.4-9.49,10.34-11.51"/><path class="cls-2" d="m976.86,48.08c6.35.94,12.02.35,17.68-2.67-2.35,3.32-5.96,5.71-9.93,6.58,3.91-.11,7.81-.23,11.72-.34-.09.61-.54,1.11-1,1.52-3.44,2.98-8.54,2.94-13,2.06s-8.91-2.46-13.43-1.99c2.4,1.26,4.36,3.33,5.5,5.8-4.73-.84-8.86-4.46-10.3-9.04,2.21-1.21-8.32-2.18-5.93-2.97"/></g><g id="SNOW"><circle class="cls-13" cx="858.87" cy="151.08" r="1.6"/><circle class="cls-13" cx="851.68" cy="172.37" r="1.6"/><circle class="cls-13" cx="1087.45" cy="164.68" r="1.6"/><circle class="cls-13" cx="1700.44" cy="186.48" r="1.85"/><circle class="cls-13" cx="1141.94" cy="260.16" r="1.6"/><circle class="cls-13" cx="1045.9" cy="112.24" r="1.6"/><circle class="cls-13" cx="853.33" cy="216.1" r="1.6"/><circle class="cls-13" cx="787.14" cy="284.95" r="1.6"/><circle class="cls-13" cx="850.88" cy="193.59" r=".8"/><circle class="cls-13" cx="1085.85" cy="184.24" r=".8"/><circle class="cls-13" cx="1557.96" cy="224.71" r=".93"/><circle class="cls-13" cx="1518.89" cy="47.86" r=".93"/><circle class="cls-13" cx="1059.27" cy="196.55" r=".8"/><circle class="cls-13" cx="839.96" cy="194.81" r=".8"/><circle class="cls-13" cx="1081.49" cy="222.73" r=".8"/><circle class="cls-13" cx="1126.58" cy="89.08" r=".8"/><circle class="cls-13" cx="816.67" cy="228.25" r=".8"/><circle class="cls-13" cx="830.72" cy="225.65" r="1.75"/><circle class="cls-13" cx="798.75" cy="223.92" r="2.96"/><circle class="cls-13" cx="898.71" cy="283.34" r="2.96"/><circle class="cls-13" cx="1138.66" cy="189.4" r="2.96"/><circle class="cls-13" cx="1289.79" cy="155.36" r="3.42"/><circle class="cls-13" cx="1589.78" cy="227.52" r="3.42"/><circle class="cls-13" cx="1393.88" cy="62.99" r="3.42"/><circle class="cls-13" cx="1013.42" cy="98.48" r="2.96"/><polygon class="cls-19" points="1108.47 90.62 1144.8 61.17 1166.13 65.27 1129.99 93.58 1108.47 90.62"/><polygon class="cls-7" points="1108.47 90.62 1111.34 108.79 1131.83 112.39 1129.99 93.58 1108.47 90.62"/><polygon class="cls-7" points="1166.13 65.27 1168.86 82.53 1131.83 112.39 1129.99 93.58 1166.13 65.27"/><polygon class="cls-27" points="1199.39 174.93 1239.68 113.98 1273.39 110.07 1232.84 169.22 1199.39 174.93"/><polygon class="cls-7" points="1199.39 174.93 1212.2 200.66 1244.43 196.38 1232.84 169.22 1199.39 174.93"/><polygon class="cls-7" points="1273.39 110.07 1285.56 134.5 1244.43 196.38 1232.84 169.22 1273.39 110.07"/><polygon class="cls-9" points="1131.43 262.34 1110.66 268.71 1099.49 295 1116.9 295 1131.43 262.34"/><polygon class="cls-7" points="1133.93 295 1141.93 276.31 1131.43 262.34 1116.9 295 1133.93 295"/><polygon class="cls-1" points="708.16 132.48 723.87 176.54 712.91 195.29 698.22 151.8 708.16 132.48"/><polygon class="cls-7" points="708.16 132.48 690.07 129.15 679.87 147.29 698.22 151.8 708.16 132.48"/><polygon class="cls-7" points="712.91 195.29 695.72 192.13 679.87 147.29 698.22 151.8 712.91 195.29"/><path class="cls-26" d="m320.22,97.29l.69,8.03-12.62,1.08,2.9,33.8-9.42.81-2.9-33.8-12.62,1.08-.69-8.03,34.65-2.97Z"/><path class="cls-26" d="m329.24,138.66l-3.89-45.39,8.87-2.22,1.3,15.21c.59-.25,1.34-.51,2.27-.77.93-.26,1.84-.43,2.72-.51,2.58-.22,4.75-.05,6.52.51,1.77.56,3.22,1.44,4.36,2.64,1.14,1.2,1.99,2.67,2.57,4.4.57,1.74.95,3.69,1.14,5.86l1.54,17.93-8.99.77-1.44-16.84c-.25-2.9-.8-4.92-1.64-6.06-.85-1.14-2.28-1.63-4.29-1.46-.81.07-1.55.2-2.25.41-.69.2-1.31.41-1.86.62l2.07,24.15-8.99.77Z"/><path class="cls-26" d="m361.94,120.1c-.24-2.82-.02-5.32.66-7.51.68-2.19,1.67-4.04,2.96-5.57,1.29-1.53,2.82-2.73,4.58-3.62,1.77-.88,3.62-1.4,5.55-1.57,4.51-.39,8.19.69,11.04,3.22,2.85,2.53,4.51,6.48,4.97,11.83.04.52.07,1.1.09,1.73.01.63.02,1.18.02,1.67l-20.4,1.75c.36,1.83,1.35,3.23,2.97,4.18,1.62.96,3.72,1.32,6.3,1.1,1.65-.14,3.26-.43,4.82-.87,1.56-.44,2.83-.92,3.8-1.45l1.83,7.2c-.46.28-1.09.58-1.87.89-.79.31-1.66.6-2.63.86-.97.27-2.01.51-3.13.72s-2.24.37-3.36.47c-2.86.24-5.38.03-7.56-.63-2.18-.66-4.03-1.67-5.55-3.02-1.51-1.35-2.69-3-3.53-4.96-.84-1.95-1.35-4.1-1.55-6.43Zm20.83-5.25c-.11-.76-.3-1.5-.58-2.2-.28-.71-.68-1.32-1.19-1.84-.51-.52-1.13-.94-1.87-1.24-.74-.3-1.63-.41-2.67-.32-1.01.09-1.86.33-2.55.74-.69.4-1.26.91-1.69,1.51-.43.61-.75,1.29-.95,2.06-.2.77-.32,1.54-.38,2.31l11.89-1.02Z"/><path class="cls-26" d="m423.76,87.93c6.28-.54,11.18.17,14.71,2.11,3.53,1.95,5.5,5.28,5.9,9.98.25,2.94-.22,5.38-1.41,7.33-1.19,1.95-3.01,3.55-5.46,4.81.93.97,1.92,2.1,2.96,3.36,1.04,1.27,2.08,2.6,3.11,3.99,1.03,1.39,2.04,2.85,3.02,4.36.98,1.52,1.9,3.01,2.75,4.48l-10.53.9c-.88-1.3-1.78-2.62-2.69-3.96-.91-1.34-1.83-2.64-2.78-3.9-.94-1.26-1.87-2.44-2.78-3.56-.91-1.12-1.81-2.12-2.7-3.02l-4.65.4,1.31,15.27-9.42.81-3.53-41.23c2.02-.58,4.12-1.04,6.3-1.39,2.18-.35,4.13-.6,5.87-.75Zm1.23,7.98c-.68.06-1.3.13-1.84.22-.54.09-1.05.17-1.53.25l.97,11.35,2.66-.23c3.54-.3,6.04-.96,7.49-1.98,1.45-1.02,2.09-2.59,1.91-4.72-.18-2.05-1.08-3.44-2.7-4.18-1.62-.73-3.94-.97-6.96-.71Z"/><path class="cls-26" d="m450.44,112.52c-.24-2.82-.02-5.32.66-7.51.68-2.19,1.67-4.04,2.96-5.57,1.29-1.53,2.82-2.73,4.59-3.62,1.77-.88,3.62-1.4,5.55-1.57,4.51-.39,8.19.69,11.04,3.22,2.85,2.53,4.51,6.48,4.97,11.83.04.52.07,1.1.09,1.73.01.63.02,1.18.02,1.67l-20.4,1.75c.36,1.83,1.35,3.23,2.97,4.18,1.62.96,3.72,1.32,6.3,1.1,1.65-.14,3.26-.43,4.82-.87,1.56-.44,2.83-.92,3.8-1.45l1.83,7.2c-.46.28-1.09.58-1.87.89-.79.31-1.66.6-2.63.86-.97.27-2.02.51-3.13.72-1.12.22-2.24.37-3.36.47-2.86.24-5.38.03-7.56-.63-2.18-.66-4.03-1.67-5.55-3.02-1.51-1.35-2.69-3-3.53-4.96-.84-1.96-1.35-4.1-1.55-6.43Zm20.83-5.25c-.11-.76-.3-1.5-.58-2.2-.28-.71-.68-1.32-1.19-1.84-.51-.52-1.13-.94-1.87-1.24-.74-.3-1.63-.41-2.67-.32-1.01.09-1.86.33-2.55.74-.7.4-1.26.91-1.69,1.51-.44.61-.75,1.29-.95,2.06-.2.77-.32,1.54-.38,2.31l11.89-1.02Z"/><path class="cls-26" d="m484.84,85.37l8.87-2.22.8,9.36,10.81-.93.64,7.49-10.81.93.96,11.17c.16,1.89.62,3.37,1.38,4.44.76,1.07,2.15,1.52,4.16,1.35.97-.08,1.95-.26,2.97-.53s1.93-.6,2.74-1l1.87,6.89c-1.05.54-2.22,1.02-3.52,1.46-1.3.44-2.92.74-4.85.9-2.45.21-4.52.05-6.18-.47-1.67-.53-3.03-1.34-4.1-2.45-1.07-1.1-1.87-2.48-2.39-4.14-.53-1.66-.88-3.51-1.05-5.56l-2.29-26.68Z"/><path class="cls-26" d="m542.35,119.3c-1.49.57-3.43,1.16-5.81,1.74-2.38.59-4.9,1-7.56,1.23-2.7.23-4.97.06-6.82-.51-1.85-.57-3.36-1.46-4.52-2.68-1.16-1.22-2.04-2.71-2.63-4.49-.6-1.77-.99-3.75-1.18-5.92l-1.52-17.69,8.99-.77,1.42,16.6c.25,2.9.81,4.96,1.69,6.18.87,1.22,2.36,1.74,4.45,1.57.64-.05,1.33-.14,2.04-.27.72-.12,1.36-.25,1.91-.38l-2.1-24.51,8.99-.77,2.63,30.67Z"/><path class="cls-26" d="m567.99,94.24c-.82-.13-1.79-.26-2.89-.39-1.1-.13-2.28-.14-3.53-.03-.56.05-1.23.16-2.01.32-.78.17-1.36.33-1.75.48l2.08,24.27-8.99.77-2.58-30.06c1.56-.7,3.42-1.4,5.57-2.09,2.15-.69,4.57-1.15,7.27-1.38.48-.04,1.07-.06,1.76-.06.69,0,1.38.02,2.07.07.69.04,1.39.1,2.08.19.7.08,1.29.2,1.79.36l-.87,7.55Z"/><path class="cls-26" d="m573.74,86.82c1.49-.57,3.43-1.16,5.81-1.74,2.38-.59,4.9-1,7.56-1.23,2.69-.23,4.97-.07,6.82.48,1.85.55,3.35,1.43,4.51,2.62,1.16,1.2,2.03,2.66,2.63,4.4.59,1.73.98,3.69,1.17,5.86l1.54,17.93-8.99.77-1.44-16.84c-.25-2.9-.81-4.92-1.67-6.06-.87-1.14-2.35-1.62-4.44-1.44-.64.06-1.33.14-2.04.27-.72.12-1.36.25-1.91.38l2.1,24.51-8.99.77-2.63-30.66Z"/><path class="cls-26" d="m335.2,195.06c.21,2.5.05,4.81-.5,6.94-.55,2.14-1.44,4-2.68,5.58-1.24,1.59-2.79,2.86-4.63,3.83-1.84.97-3.95,1.55-6.33,1.76-2.33.2-4.49-.02-6.47-.66-1.98-.64-3.72-1.64-5.21-2.99-1.5-1.35-2.71-3.03-3.65-5.04-.94-2.01-1.52-4.26-1.73-6.75-.21-2.5-.02-4.8.59-6.92.61-2.12,1.54-3.96,2.81-5.53,1.26-1.57,2.82-2.83,4.66-3.8,1.84-.97,3.89-1.55,6.14-1.74,2.29-.2,4.43.03,6.41.67,1.98.64,3.72,1.63,5.21,2.96,1.49,1.33,2.71,2.99,3.65,4.98.94,1.99,1.52,4.23,1.73,6.72Zm-9.18.79c-.24-2.78-.98-4.91-2.22-6.41-1.24-1.49-2.89-2.15-4.94-1.98-2.05.18-3.57,1.11-4.56,2.79-.99,1.69-1.37,3.92-1.13,6.69.24,2.78.99,4.93,2.26,6.46s2.93,2.21,4.98,2.04c2.05-.18,3.56-1.13,4.53-2.85.97-1.72,1.33-3.97,1.09-6.75Z"/><path class="cls-26" d="m353.25,162.38c1.69-.15,3.25-.11,4.69.11,1.44.22,2.55.46,3.35.72l-1.13,7.33c-.84-.29-1.74-.49-2.7-.59-.96-.1-1.84-.12-2.65-.05-1.09.09-1.99.32-2.71.69-.72.36-1.27.83-1.64,1.39-.38.56-.62,1.21-.74,1.95-.12.74-.14,1.53-.07,2.38l.13,1.57,11.11-.95.64,7.49-11.11.95,2.08,24.27-8.99.77-2.87-33.44c-.35-4.11.52-7.46,2.63-10.08,2.11-2.61,5.43-4.11,9.98-4.5Z"/><path class="cls-26" d="m379.76,167.35l8.87-2.22.8,9.36,10.8-.93.64,7.49-10.81.93.96,11.17c.16,1.89.62,3.37,1.38,4.44.76,1.07,2.15,1.52,4.16,1.35.97-.08,1.95-.26,2.96-.53,1.01-.27,1.93-.6,2.74-1l1.87,6.89c-1.05.54-2.22,1.02-3.52,1.46-1.3.44-2.92.74-4.85.9-2.46.21-4.52.05-6.18-.47s-3.03-1.34-4.1-2.45c-1.07-1.1-1.87-2.49-2.39-4.14s-.88-3.51-1.05-5.56l-2.29-26.68Z"/><path class="cls-26" d="m410.26,204.68l-3.89-45.39,8.87-2.22,1.3,15.21c.59-.25,1.34-.51,2.28-.77.93-.26,1.84-.43,2.72-.51,2.58-.22,4.75-.05,6.52.51,1.77.56,3.22,1.44,4.36,2.64,1.14,1.2,1.99,2.67,2.57,4.4.57,1.74.95,3.69,1.14,5.86l1.54,17.93-8.99.77-1.44-16.84c-.25-2.9-.8-4.92-1.64-6.06-.85-1.14-2.28-1.63-4.29-1.46-.81.07-1.55.2-2.25.41-.69.2-1.31.41-1.86.62l2.07,24.15-8.99.77Z"/><path class="cls-26" d="m442.97,186.13c-.24-2.82-.02-5.32.66-7.51.68-2.19,1.67-4.04,2.96-5.57,1.29-1.53,2.82-2.73,4.58-3.61,1.77-.88,3.62-1.41,5.55-1.57,4.51-.39,8.19.69,11.04,3.22,2.85,2.53,4.51,6.48,4.97,11.83.05.52.07,1.1.09,1.73.01.63.02,1.18.02,1.67l-20.4,1.75c.36,1.83,1.35,3.23,2.97,4.18,1.62.96,3.72,1.32,6.3,1.1,1.65-.14,3.26-.43,4.82-.87,1.56-.44,2.83-.92,3.8-1.45l1.83,7.2c-.46.28-1.09.58-1.87.89-.79.31-1.66.6-2.63.86-.97.27-2.01.51-3.13.72-1.12.22-2.24.37-3.36.47-2.86.24-5.38.04-7.56-.63-2.19-.66-4.03-1.67-5.55-3.02-1.51-1.35-2.69-3-3.53-4.96-.84-1.96-1.35-4.1-1.55-6.43Zm20.83-5.25c-.11-.76-.3-1.5-.58-2.2-.28-.7-.68-1.32-1.19-1.84-.51-.52-1.13-.94-1.87-1.24-.74-.3-1.63-.41-2.67-.32-1.01.09-1.86.33-2.55.74-.7.4-1.26.91-1.69,1.51-.43.61-.75,1.29-.95,2.06-.2.77-.32,1.54-.38,2.31l11.89-1.02Z"/><path class="cls-26" d="m509.37,171.34c1.45-3,2.81-5.98,4.1-8.96,1.29-2.98,2.45-5.97,3.49-8.97l10.38-.89c-1.91,4.7-3.91,9.27-6,13.71-2.09,4.44-4.32,8.9-6.7,13.4l1.37,16-9.42.81-1.36-15.88c-3.1-4.03-6.07-8.07-8.91-12.13-2.84-4.05-5.6-8.24-8.28-12.55l10.93-.94c1.53,2.78,3.16,5.53,4.9,8.25,1.73,2.72,3.56,5.44,5.5,8.14Z"/><path class="cls-26" d="m527.3,178.91c-.24-2.82-.02-5.32.66-7.51.68-2.19,1.67-4.04,2.96-5.57,1.29-1.53,2.82-2.73,4.58-3.61,1.77-.88,3.62-1.41,5.55-1.57,4.51-.39,8.19.69,11.04,3.22,2.85,2.53,4.51,6.48,4.97,11.83.05.52.07,1.1.09,1.73.01.63.02,1.18.02,1.67l-20.4,1.75c.36,1.83,1.35,3.23,2.97,4.18,1.62.96,3.72,1.32,6.3,1.1,1.65-.14,3.26-.43,4.82-.87,1.56-.44,2.83-.92,3.8-1.45l1.83,7.2c-.46.28-1.09.58-1.87.89-.79.31-1.66.6-2.63.86-.97.27-2.02.51-3.13.72-1.12.22-2.24.37-3.37.47-2.86.25-5.38.04-7.56-.63-2.19-.66-4.03-1.67-5.55-3.02-1.51-1.35-2.69-3-3.53-4.96-.84-1.96-1.35-4.1-1.55-6.43Zm20.83-5.25c-.11-.76-.3-1.49-.58-2.2-.28-.7-.68-1.32-1.19-1.84-.51-.52-1.13-.94-1.87-1.24-.74-.3-1.63-.41-2.67-.32-1.01.09-1.86.33-2.55.74-.7.4-1.26.91-1.69,1.51-.44.61-.75,1.29-.95,2.06-.2.77-.32,1.54-.38,2.31l11.89-1.02Z"/><path class="cls-26" d="m561.7,151.76l8.87-2.22.8,9.36,10.8-.93.64,7.49-10.81.93.96,11.17c.16,1.89.62,3.37,1.38,4.44.76,1.07,2.15,1.52,4.16,1.35.97-.08,1.95-.26,2.96-.53,1.01-.27,1.93-.6,2.74-1l1.87,6.89c-1.05.54-2.22,1.02-3.52,1.46-1.3.44-2.92.74-4.85.9-2.45.21-4.52.05-6.18-.47-1.67-.53-3.03-1.34-4.1-2.45-1.07-1.1-1.87-2.49-2.39-4.14-.53-1.66-.88-3.51-1.05-5.56l-2.29-26.68Z"/><path class="cls-26" d="m598.54,147.33c.14,1.65-.28,2.99-1.27,4.03-.98,1.04-2.2,1.62-3.65,1.74-1.45.12-2.75-.24-3.89-1.1-1.15-.85-1.79-2.11-1.93-3.76s.28-2.99,1.27-4.03c.98-1.04,2.2-1.62,3.65-1.74,1.45-.12,2.75.24,3.89,1.09,1.15.86,1.79,2.11,1.93,3.76Zm2.66,41l-8.99.77-2.72-31.75,8.99-.77,2.72,31.75Z"/><circle class="cls-13" cx="320.01" cy="176.2" r="1.85"/><circle class="cls-13" cx="462.49" cy="214.44" r=".93"/><circle class="cls-13" cx="501.55" cy="37.59" r=".93"/><circle class="cls-13" cx="745.64" cy="165.07" r="2.96"/><circle class="cls-13" cx="430.67" cy="217.25" r="3.42"/><circle class="cls-13" cx="626.57" cy="52.72" r="3.42"/><circle class="cls-13" cx="85.03" cy="257.75" r="3.42"/><circle class="cls-13" cx="53.62" cy="31.74" r="3.42"/></g><g id="Layer_7"><g id="g10"><g id="g12"><path id="path14" class="cls-13" d="m1482.12,141.92h-5.26v-21.71h-7.31v-4.95h19.88v4.95h-7.31v21.71"/><path id="path16" class="cls-13" d="m1502.65,127.29c-3.54,0-5.33,2.4-5.33,6.02v8.61h-4.84v-19.05h3.24l.54,4.11c1.41-2.67,3.96-4.38,7.54-4.38h.8v4.68h-1.94"/><path id="path18" class="cls-13" d="m1527.52,139.48c0,5.56-3.62,9.71-9.52,9.71-3.51,0-6.4-1.26-8.46-2.97l2.74-2.93c1.83.91,3.54,1.52,5.71,1.49,2.74,0,4.65-1.41,4.65-4.19v-1.22c-1.22,1.56-3.24,2.25-5.22,2.25-5.52,0-8.34-3.77-8.34-9.29v-9.45h4.84v9.18c0,3.51,1.68,4.88,4.27,4.88,2.74,0,4.49-1.64,4.49-5.3v-8.76h4.84v16.61"/><path id="path20" class="cls-13" d="m1487.49,175.86v-10.93h-10.32v10.93h-5.26v-26.66h5.26v10.78h10.32v-10.78h5.26v26.66h-5.26"/><path id="path22" class="cls-13" d="m1512.97,166.33c0-3.12-2.4-5.1-4.91-5.1s-4.91,1.98-4.91,5.1,2.36,5.07,4.91,5.07,4.91-1.94,4.91-5.07Zm1.22,9.52l-.27-2.7c-1.41,1.79-3.7,2.93-6.32,2.93-5.41,0-9.29-4.34-9.29-9.75s3.88-9.79,9.29-9.79c2.63,0,4.91,1.18,6.32,2.97l.27-2.7h3.24v19.05h-3.24"/><path id="path24" class="cls-13" d="m1540.05,160.09l-2.89,3.12c-1.56-1.45-2.93-1.94-4.61-1.94-2.55,0-4.92,1.94-4.92,5.07s2.36,5.07,4.92,5.07c1.68,0,3.05-.49,4.61-1.94l2.89,3.12c-1.79,2.13-4.49,3.5-7.5,3.5-5.41,0-9.75-4.34-9.75-9.75s4.34-9.75,9.75-9.75c3.01,0,5.71,1.37,7.5,3.51"/><path id="path26" class="cls-13" d="m1555.21,170.79c-1.14-1.75-1.79-2.4-3.62-2.4h-1.33v7.47h-4.84v-26.66h4.84v14.55h1.18c1.79,0,2.44-.61,3.58-2.4l2.97-4.53h5.37l-4.27,6.44c-.8,1.26-1.87,2.44-2.7,2.78.95.31,2.02,1.52,2.9,2.86l4.57,6.97h-5.37l-3.28-5.07"/><path id="path28" class="cls-13" d="m1492.82,206.43v-17.03l-8.04,9.98-8-9.98v17.03h-5.26v-26.67h3.12l10.13,12.72,10.17-12.72h3.12v26.67h-5.26"/><path id="path30" class="cls-13" d="m1509.35,195.2h8.72c0-.46-.15-1.07-.46-1.52-.65-1.22-2.02-2.13-3.85-2.13-2.59,0-4.34,1.83-4.42,3.66Zm12.8-2.93c.8,1.75.84,4.34.31,5.98h-13.29c0,2.59,2.13,4,4.72,4,1.98,0,4.04-.46,5.75-1.33l2.55,2.78c-2.06,1.52-4.92,2.97-8.31,2.97-5.79,0-9.71-4.19-9.71-9.75s3.66-9.79,9.6-9.79c4.07,0,6.93,1.94,8.38,5.14"/><path id="path32" class="cls-13" d="m1409.39,147.17v-9.03l-2.29,1.77-1.51-2.07,4.05-2.97h2.66v12.3h-2.9"/><path id="path34" class="cls-13" d="m1421.31,140.98c0-.38-.02-.8-.07-1.27-.05-.46-.13-.9-.26-1.29-.13-.4-.31-.74-.55-1.01-.24-.27-.55-.41-.93-.41s-.69.14-.94.41c-.25.27-.43.61-.57,1.01-.13.4-.22.83-.27,1.29-.05.46-.07.89-.07,1.27s.02.82.07,1.29c.05.47.14.9.27,1.3.13.4.32.74.57,1.01.24.27.56.41.94.41s.69-.14.93-.41c.24-.27.42-.61.55-1.01.13-.4.21-.83.26-1.3.04-.47.07-.9.07-1.29Zm2.99,0c0,.87-.09,1.7-.26,2.48-.17.79-.45,1.48-.83,2.08-.38.6-.88,1.07-1.48,1.43-.61.35-1.35.53-2.22.53s-1.61-.18-2.22-.53c-.61-.35-1.11-.83-1.5-1.43-.39-.6-.67-1.29-.84-2.08-.17-.79-.26-1.62-.26-2.48s.09-1.69.26-2.47c.18-.78.46-1.47.84-2.05.39-.58.89-1.05,1.5-1.4.61-.35,1.36-.52,2.22-.52s1.61.17,2.22.52c.61.35,1.1.81,1.48,1.4.38.58.66,1.27.83,2.05.18.78.26,1.61.26,2.47"/><path id="path36" class="cls-13" d="m1440.6,147.17v-9.03l-2.29,1.77-1.51-2.07,4.05-2.97h2.66v12.3h-2.9"/><path id="path38" class="cls-13" d="m1452.52,140.98c0-.38-.02-.8-.07-1.27-.05-.46-.13-.9-.26-1.29-.13-.4-.31-.74-.55-1.01-.24-.27-.55-.41-.93-.41s-.69.14-.94.41c-.25.27-.43.61-.57,1.01-.13.4-.22.83-.27,1.29-.05.46-.07.89-.07,1.27s.02.82.07,1.29c.05.47.14.9.27,1.3.13.4.32.74.57,1.01.24.27.56.41.94.41s.69-.14.93-.41c.24-.27.42-.61.55-1.01.13-.4.21-.83.26-1.3.04-.47.07-.9.07-1.29Zm2.99,0c0,.87-.09,1.7-.26,2.48-.17.79-.45,1.48-.83,2.08-.38.6-.88,1.07-1.48,1.43-.61.35-1.35.53-2.22.53s-1.61-.18-2.22-.53c-.61-.35-1.11-.83-1.5-1.43-.39-.6-.67-1.29-.84-2.08-.17-.79-.26-1.62-.26-2.48s.09-1.69.26-2.47c.18-.78.45-1.47.84-2.05s.89-1.05,1.5-1.4c.61-.35,1.35-.52,2.22-.52s1.61.17,2.22.52c.61.35,1.1.81,1.48,1.4.38.58.66,1.27.83,2.05.18.78.26,1.61.26,2.47"/><path id="path40" class="cls-13" d="m1409.12,166.53v-9.03l-2.29,1.77-1.51-2.07,4.05-2.97h2.66v12.3h-2.9"/><path id="path42" class="cls-13" d="m1419.35,166.53v-9.03l-2.29,1.77-1.51-2.07,4.05-2.97h2.66v12.3h-2.9"/><path id="path44" class="cls-13" d="m1429.53,166.53v-9.03l-2.29,1.77-1.51-2.07,4.05-2.97h2.66v12.3h-2.9"/><path id="path46" class="cls-13" d="m1441.97,160.34c0-.38-.02-.8-.07-1.27-.04-.47-.13-.9-.26-1.29-.13-.4-.31-.74-.55-1.01-.24-.27-.55-.41-.93-.41s-.69.14-.94.41c-.24.27-.43.61-.56,1.01-.13.4-.22.83-.27,1.29-.05.46-.07.88-.07,1.27s.02.83.07,1.3c.05.47.14.9.27,1.3.13.4.32.74.56,1.01.25.27.56.41.94.41s.69-.14.93-.41c.24-.27.42-.61.55-1.01.12-.4.21-.83.26-1.3.05-.47.07-.9.07-1.3Zm2.99,0c0,.87-.09,1.7-.26,2.49-.18.79-.45,1.48-.84,2.08-.38.6-.88,1.07-1.49,1.42-.61.36-1.34.53-2.21.53s-1.61-.17-2.22-.53c-.61-.35-1.11-.83-1.5-1.42-.39-.6-.67-1.29-.84-2.08-.17-.79-.26-1.62-.26-2.49s.09-1.69.26-2.47c.18-.78.45-1.46.84-2.05.39-.59.89-1.05,1.5-1.4.61-.34,1.35-.52,2.22-.52s1.6.17,2.21.52c.61.35,1.1.81,1.49,1.4.38.58.66,1.27.84,2.05.18.78.26,1.61.26,2.47"/><path id="path48" class="cls-13" d="m1415,180.32v-6.56l-1.67,1.28-1.1-1.5,2.94-2.16h1.93v8.93h-2.11"/><path id="path50" class="cls-13" d="m1429.76,180.32v-6.56l-1.67,1.28-1.1-1.5,2.94-2.16h1.93v8.93h-2.11"/><path id="path52" class="cls-13" d="m1409.1,175.83c0-.28-.02-.58-.05-.92-.03-.33-.1-.65-.19-.94-.09-.29-.22-.53-.4-.73-.17-.2-.4-.29-.67-.29s-.51.1-.68.29c-.18.2-.31.44-.41.73-.1.29-.16.61-.2.94-.03.34-.05.64-.05.92s.02.6.05.94c.03.34.1.66.2.95.1.29.23.53.41.73.17.2.4.29.68.29s.5-.1.67-.29c.17-.2.31-.44.4-.73.09-.29.16-.61.19-.95.03-.34.05-.65.05-.94Zm2.17,0c0,.63-.06,1.23-.19,1.8-.13.57-.33,1.08-.61,1.51-.28.44-.64.78-1.08,1.04-.44.26-.98.38-1.61.38s-1.17-.13-1.62-.38c-.45-.26-.81-.6-1.09-1.04-.28-.43-.48-.93-.61-1.51-.13-.57-.19-1.17-.19-1.8s.06-1.23.19-1.8c.13-.57.33-1.06.61-1.49.28-.42.64-.76,1.09-1.02.45-.25.98-.38,1.62-.38s1.17.13,1.61.38c.44.25.8.59,1.08,1.02.28.43.48.92.61,1.49.12.57.19,1.17.19,1.8"/><path id="path54" class="cls-13" d="m1423.94,175.83c0-.28-.02-.58-.05-.92-.03-.33-.1-.65-.19-.94-.09-.29-.22-.53-.4-.73-.17-.2-.4-.29-.67-.29s-.51.1-.68.29c-.18.2-.32.44-.41.73-.1.29-.16.61-.2.94-.03.34-.05.64-.05.92s.02.6.05.94c.03.34.1.66.2.95.09.29.23.53.41.73.18.2.4.29.68.29s.5-.1.67-.29c.17-.2.31-.44.4-.73.09-.29.16-.61.19-.95.03-.34.05-.65.05-.94Zm2.17,0c0,.63-.06,1.23-.19,1.8-.13.57-.33,1.08-.61,1.51-.28.44-.64.78-1.08,1.04-.44.26-.98.38-1.61.38s-1.17-.13-1.62-.38c-.45-.26-.81-.6-1.09-1.04-.28-.43-.49-.93-.61-1.51-.13-.57-.19-1.17-.19-1.8s.06-1.23.19-1.8c.12-.57.33-1.06.61-1.49.28-.42.64-.76,1.09-1.02.45-.25.98-.38,1.62-.38s1.17.13,1.61.38c.44.25.8.59,1.08,1.02.28.43.48.92.61,1.49.13.57.19,1.17.19,1.8"/><path id="path56" class="cls-13" d="m1454.34,180.32v-6.56l-1.67,1.28-1.1-1.5,2.94-2.16h1.93v8.93h-2.11"/><path id="path58" class="cls-13" d="m1448.52,175.83c0-.28-.02-.58-.05-.92-.03-.33-.1-.65-.19-.94-.09-.29-.22-.53-.4-.73-.17-.2-.4-.29-.67-.29s-.51.1-.68.29c-.18.2-.31.44-.41.73-.09.29-.16.61-.19.94-.03.34-.05.64-.05.92s.02.6.05.94c.03.34.1.66.19.95.1.29.24.53.41.73.18.2.4.29.68.29s.5-.1.67-.29c.17-.2.31-.44.4-.73.09-.29.16-.61.19-.95.03-.34.05-.65.05-.94Zm2.17,0c0,.63-.06,1.23-.19,1.8-.13.57-.33,1.08-.61,1.51-.28.44-.64.78-1.08,1.04-.44.26-.98.38-1.61.38s-1.17-.13-1.62-.38c-.45-.26-.81-.6-1.09-1.04-.28-.43-.49-.93-.61-1.51-.13-.57-.19-1.17-.19-1.8s.06-1.23.19-1.8c.13-.57.33-1.06.61-1.49.28-.42.64-.76,1.09-1.02.45-.25.98-.38,1.62-.38s1.17.13,1.61.38c.44.25.8.59,1.08,1.02.28.43.48.92.61,1.49.12.57.19,1.17.19,1.8"/><path id="path60" class="cls-13" d="m1446.24,190.84v-6.56l-1.67,1.29-1.1-1.5,2.94-2.16h1.93v8.93h-2.11"/><path id="path62" class="cls-13" d="m1440.42,186.35c0-.28-.02-.58-.05-.92-.03-.33-.1-.65-.19-.94-.09-.29-.22-.53-.4-.73-.17-.2-.4-.29-.67-.29s-.51.1-.68.29c-.18.2-.31.44-.41.73-.1.29-.16.61-.2.94-.03.34-.05.64-.05.92s.02.6.05.94c.03.34.1.66.2.95.1.29.23.53.41.73.18.2.4.29.68.29s.5-.1.67-.29c.17-.2.31-.44.4-.73.09-.29.16-.61.19-.95.03-.34.05-.65.05-.94Zm2.17,0c0,.63-.06,1.23-.19,1.8-.13.57-.33,1.08-.61,1.51-.28.43-.64.78-1.08,1.03-.44.26-.98.38-1.61.38s-1.17-.13-1.62-.38c-.45-.26-.81-.6-1.09-1.03-.28-.43-.49-.94-.61-1.51-.12-.57-.19-1.17-.19-1.8s.07-1.23.19-1.8c.13-.57.33-1.07.61-1.49.28-.42.64-.76,1.09-1.02.45-.25.98-.38,1.62-.38s1.17.13,1.61.38c.44.25.8.59,1.08,1.02.28.43.48.92.61,1.49.12.57.19,1.17.19,1.8"/><path id="path64" class="cls-13" d="m1412.05,190.71v-4.54l-1.15.89-.76-1.04,2.04-1.49h1.34v6.19h-1.46"/><path id="path66" class="cls-13" d="m1408.02,187.6c0-.19-.01-.4-.03-.64-.03-.23-.07-.45-.13-.65-.06-.2-.15-.37-.27-.51-.12-.14-.28-.21-.47-.21s-.35.07-.47.21c-.12.14-.22.31-.28.51-.07.2-.11.42-.14.65-.02.24-.03.45-.03.64s.01.41.03.65c.02.24.07.45.14.65.07.2.16.37.28.51.12.14.28.21.47.21s.35-.07.47-.21c.12-.14.21-.31.27-.51.06-.2.11-.42.13-.65.02-.24.03-.45.03-.65Zm1.5,0c0,.44-.04.85-.13,1.25-.09.39-.23.74-.42,1.04-.19.3-.44.54-.75.71-.31.18-.68.27-1.11.27s-.81-.09-1.12-.27c-.31-.18-.56-.42-.76-.71-.2-.3-.34-.65-.42-1.04-.09-.4-.13-.81-.13-1.25s.04-.85.13-1.25c.09-.39.23-.74.42-1.03.2-.29.45-.53.76-.7.31-.17.68-.26,1.12-.26s.81.09,1.11.26c.31.17.56.41.75.7.19.29.33.64.42,1.03.09.39.13.81.13,1.25"/><path id="path68" class="cls-13" d="m1430.22,198.66v-4.54l-1.15.89-.76-1.04,2.04-1.5h1.34v6.19h-1.46"/><path id="path70" class="cls-13" d="m1426.19,195.55c0-.19-.01-.41-.04-.64-.02-.23-.06-.45-.13-.65s-.16-.37-.27-.51c-.12-.14-.28-.21-.47-.21s-.35.07-.47.21c-.12.14-.22.31-.28.51-.07.2-.11.42-.14.65-.02.23-.04.45-.04.64s.01.42.04.65c.02.24.07.45.14.66.07.2.16.37.28.51.12.14.28.2.47.2s.35-.07.47-.2c.12-.14.21-.31.27-.51.07-.2.11-.42.13-.66.02-.23.04-.45.04-.65Zm1.5,0c0,.44-.04.85-.13,1.25-.09.4-.23.74-.42,1.04-.19.3-.44.54-.75.72-.31.18-.68.26-1.11.26s-.81-.09-1.12-.26c-.31-.18-.56-.42-.76-.72-.2-.3-.34-.65-.42-1.04-.09-.4-.13-.81-.13-1.25s.04-.85.13-1.25c.09-.39.23-.74.42-1.03.2-.29.45-.53.76-.7.31-.18.68-.26,1.12-.26s.81.09,1.11.26c.31.17.56.41.75.7.19.29.33.64.42,1.03.09.39.13.81.13,1.25"/><path id="path72" class="cls-13" d="m1455.16,186.35c0-.28-.02-.58-.05-.92-.03-.33-.1-.65-.19-.94-.09-.29-.22-.53-.4-.73-.17-.2-.4-.29-.67-.29s-.51.1-.68.29c-.18.2-.31.44-.41.73-.1.29-.16.61-.2.94-.03.34-.05.64-.05.92s.02.6.05.94c.03.34.1.66.2.95.1.29.23.53.41.73.18.2.4.29.68.29s.5-.1.67-.29c.17-.2.31-.44.4-.73.09-.29.16-.61.19-.95.03-.34.05-.65.05-.94Zm2.17,0c0,.63-.07,1.23-.19,1.8-.12.57-.33,1.08-.61,1.51-.28.43-.64.78-1.08,1.03-.44.26-.98.38-1.61.38s-1.17-.13-1.62-.38c-.44-.26-.81-.6-1.09-1.03-.28-.43-.49-.94-.61-1.51-.13-.57-.19-1.17-.19-1.8s.06-1.23.19-1.8c.12-.57.33-1.07.61-1.49.28-.42.65-.76,1.09-1.02.45-.25.98-.38,1.62-.38s1.17.13,1.61.38c.44.25.8.59,1.08,1.02.28.43.48.92.61,1.49.13.57.19,1.17.19,1.8"/><path id="path74" class="cls-13" d="m1451.09,126.07c-2.06-10.06-11.02-17.36-21.31-17.36-1.57,0-3.11.18-4.61.5-2.5-14.67-15.29-25.87-30.66-25.87s-27.92,11-30.59,25.46c-11.06,1.01-19.76,10.33-19.76,21.65,0,11.99,9.76,21.74,21.75,21.74h32.54c1.66,0,3.01-1.34,3.01-3.01s-1.35-3.01-3.01-3.01h-32.54c-8.68,0-15.73-7.06-15.73-15.73s7.06-15.73,15.73-15.73c3.15,0,6.19.93,8.79,2.68,1.38.93,3.25.57,4.18-.81.93-1.38.57-3.25-.81-4.18-2.46-1.66-5.2-2.77-8.08-3.32,2.46-11.28,12.51-19.75,24.52-19.75,12.79,0,23.36,9.62,24.9,22-.81.44-1.59.92-2.35,1.46-1.35.97-1.65,2.85-.68,4.2.97,1.35,2.85,1.65,4.2.68,2.69-1.94,5.87-2.97,9.2-2.97,7.44,0,13.92,5.28,15.41,12.56.29,1.42,1.55,2.4,2.94,2.4.2,0,.4-.02.61-.06,1.63-.33,2.68-1.92,2.34-3.55"/></g></g></g></svg>